<svg width="863" height="175" viewBox="0 0 863 175" fill="none" xmlns="http://www.w3.org/2000/svg">
<g clip-path="url(#clip0_165_67)">
<g clip-path="url(#clip1_165_67)">
<path d="M124.3 19.7H-11.3V155.3H124.3V19.7Z" fill="#D9D9D9"/>
<path d="M124.3 19.7H-11.3V155.3H124.3V19.7Z" fill="#D9D9D9"/>
<mask id="mask0_165_67" style="mask-type:luminance" maskUnits="userSpaceOnUse" x="-12" y="19" width="137" height="137">
<path d="M124.3 19.7H-11.3V155.3H124.3V19.7Z" fill="black" fill-opacity="0.42"/>
</mask>
<g mask="url(#mask0_165_67)">
<mask id="mask1_165_67" style="mask-type:luminance" maskUnits="userSpaceOnUse" x="7" y="42" width="100" height="91">
<path d="M106.069 42.752H7.23193V132.248H106.069V42.752Z" fill="white"/>
</mask>
<g mask="url(#mask1_165_67)">
<path d="M83.2244 123.188C77.957 127.205 72.4706 130.718 65.5352 131.157C52.4343 131.991 39.7265 130.784 27.9192 124.483C21.7524 121.19 16.5297 116.667 12.0744 111.355C8.10178 106.635 7.31196 100.817 8.14651 94.8896C9.26474 87.0961 12.2722 79.9394 16.0247 73.0676C19.6678 66.3712 24.5186 60.62 30.0709 55.4173C40.8247 45.3402 53.3559 42.9472 67.2479 47.0741C77.9793 50.2793 87.0217 56.2506 94.7469 64.3513C102.318 72.3214 105.588 88.9394 97.6437 100.004C94.329 104.593 91.0379 108.984 86.0341 111.816C84.8052 112.518 83.707 113.44 82.5876 114.34C80.1746 116.294 77.4967 117.721 74.4905 118.534C72.4706 119.06 70.5178 119.763 68.5427 120.422C57.3062 124.198 46.3111 123.275 35.5573 118.6C26.3171 114.582 20.3705 107.644 17.9116 97.8747C16.7486 93.2864 17.6927 88.6769 18.7026 84.2193C22.2138 68.8525 32.5063 60.0055 47.2327 56.0317C54.7826 53.9895 62.5513 53.5069 70.3424 55.2407C74.753 56.2294 78.5279 58.2481 81.2928 61.9583C84.5628 66.3276 88.0528 70.5651 91.1474 75.0428C95.4049 81.2119 94.3737 87.8424 91.8489 94.2304C87.3725 105.536 78.6597 111.991 67.1384 115.46C56.5376 118.643 46.5524 117.282 36.8744 112.649C31.1903 109.928 27.5908 105.317 27.0858 98.841C26.7786 94.8237 26.4937 90.7404 26.8221 86.7442C27.4366 79.478 30.8607 73.6161 36.9615 69.4893C42.2501 65.911 47.8472 62.9023 53.9916 61.1026C61.2341 58.9732 68.1036 59.9832 74.2927 64.4172C76.5963 66.064 78.748 67.952 80.8102 69.906C82.0615 71.0913 83.115 72.5403 84.0802 73.9893C88.2506 80.2019 87.6573 86.5688 83.7294 92.4742C77.8039 101.387 69.4643 106.832 58.6881 108.238C53.5089 108.918 48.6146 107.908 44.0499 105.559C39.5299 103.254 36.4789 99.6309 35.4913 94.5376C34.0212 87.0302 35.6667 80.2678 40.3409 74.1647C46.2887 66.3712 60.9928 63.8464 69.9693 71.3985C76.2455 76.6683 76.9918 85.8225 71.4171 91.8598C67.5327 96.0749 62.7267 98.4244 57.0202 98.907C49.1855 99.5873 44.8845 94.3187 42.9529 89.7304C42.163 87.8424 42.2066 85.8884 43.0623 83.978C44.9716 79.697 48.0226 76.4918 52.193 74.4507C55.9008 72.6498 59.6981 73.1995 63.2752 74.9557C65.6235 76.0974 66.3262 77.8089 65.9083 80.3997C65.0526 85.713 60.2901 89.555 54.9132 89.2478C51.841 89.0713 50.3049 87.3374 50.5898 84.3076C50.8323 81.5414 53.7067 78.2703 56.3846 77.8972C60.9928 77.2392 59.0177 78.3139 57.5475 79.3026C56.1209 80.2678 54.4965 81.1459 53.5089 82.4631C52.8721 83.32 52.8074 85.0103 53.1582 86.1297C53.5972 87.5563 55.1557 87.1397 56.3186 87.0078C59.8522 86.6347 62.7926 83.825 63.5389 80.2902C63.8673 78.7753 63.3411 77.7218 61.9581 77.085C58.3597 75.4606 54.7826 75.1087 51.3808 77.5676C48.8571 79.3897 46.7501 81.6297 45.6307 84.5713C45.1917 85.7342 45.0163 87.1832 45.2788 88.3697C46.2228 92.3424 50.5027 95.7677 54.5401 96.0749C62.5513 96.6681 70.0564 91.3772 72.1198 83.6272C73.1945 79.6534 71.5266 76.5141 68.784 73.9022C61.3001 66.7443 50.7216 68.457 45.2788 73.0453C38.8931 78.4022 36.5884 85.4494 38.2128 93.7043C39.1344 98.3361 42.1195 101.212 46.3111 102.924C50.9853 104.835 55.7913 105.251 60.7951 104.176C68.6086 102.485 75.1708 98.841 79.9109 92.3647C81.6224 90.0153 82.8077 87.2491 83.9483 84.5489C84.3874 83.539 84.2344 82.1782 84.0142 81.0141C83.2468 76.9308 81.5129 73.3313 78.2866 70.5651C77.2107 69.6423 76.2019 68.6112 75.1485 67.6672C68.7616 61.9583 61.4095 60.5752 53.4654 63.4297C49.1643 64.9669 44.9939 67.0515 41.0213 69.3351C31.6505 74.7144 27.9639 83.0787 28.995 93.6819C29.0833 94.6695 29.3246 95.6358 29.4564 96.6022C30.7289 105.076 36.3247 109.312 43.984 111.705C52.4555 114.362 60.7951 114.032 69.1795 111.355C76.2231 109.093 81.6883 104.856 86.0341 98.907C89.1063 94.7142 90.7519 90.0376 91.0815 84.922C91.1909 83.2317 91.0591 81.3661 90.4446 79.8288C89.523 77.5017 88.3377 75.197 86.8239 73.2206C83.8612 69.2915 80.7443 65.4719 77.4084 61.8488C76.136 60.4658 74.248 59.4123 72.427 58.8414C62.1346 55.5044 51.6433 55.7245 41.877 60.0055C29.8296 65.2953 22.5211 74.6261 20.5235 88.2155C18.7026 100.641 27.1953 111.509 35.6667 115.108C43.326 118.358 51.0736 120.772 59.5439 119.741C60.3125 119.653 61.0811 119.653 61.8274 119.521C76.289 116.646 88.2058 109.796 96.4807 97.2826C97.0728 96.3821 97.6437 95.3722 97.8626 94.3411C98.5865 90.9157 99.1798 87.4692 99.7507 84.0004C99.8813 83.1446 99.9261 82.2218 99.7283 81.3884C98.3676 75.6137 96.6997 70.0154 92.4645 65.4719C84.2555 56.6897 74.0726 51.3775 62.5725 48.6114C54.1458 46.5691 45.9591 47.9969 38.6071 52.6947C29.8508 58.2705 22.9601 65.6473 18.3295 75.0216C15.4103 80.927 12.6006 86.876 11.3941 93.4182C10.0769 100.597 11.5259 106.855 16.8805 112.387C25.6156 121.387 36.1493 126.173 48.2415 127.535C54.1893 128.193 60.2466 127.886 66.2603 127.797C70.8686 127.733 75.0166 126.129 78.7692 123.386C79.6908 122.704 80.6125 121.937 81.7319 121.519C83.9707 120.641 85.6386 121.366 83.2244 123.188Z" fill="#21A0CC"/>
</g>
</g>
<mask id="mask2_165_67" style="mask-type:luminance" maskUnits="userSpaceOnUse" x="62" y="94" width="27" height="39">
<path d="M62.9786 94.28H88.8933V132.7H62.9786V94.28Z" fill="white"/>
</mask>
<g mask="url(#mask2_165_67)">
<path fill-rule="evenodd" clip-rule="evenodd" d="M69.6256 124.425C69.6256 126.167 69.6786 127.911 69.6103 129.65C69.5362 131.555 68.372 132.669 66.5711 132.712C64.7913 132.752 63.3706 131.67 63.3329 129.834C63.2293 124.736 63.2352 119.632 63.327 114.534C63.3588 112.81 64.7596 111.694 66.6064 111.648C68.9076 111.593 71.21 111.587 73.51 111.646C74.6141 111.675 75.0932 111.502 75.1862 110.175C75.4098 106.962 75.9713 103.778 76.9365 100.686C78.1112 96.9215 81.3882 94.512 85.2997 94.539C88.0293 94.5579 89.2158 96.1057 88.4931 98.8354C87.4008 102.963 86.2555 107.076 85.1196 111.192C83.2927 117.804 83.2868 117.803 76.3479 117.803C74.7295 117.803 73.1063 117.89 71.496 117.777C70.0894 117.676 69.462 118.014 69.6056 119.577C69.7527 121.18 69.6386 122.808 69.6386 124.425C69.635 124.425 69.6303 124.425 69.6256 124.425Z" fill="#020202"/>
</g>
<mask id="mask3_165_67" style="mask-type:luminance" maskUnits="userSpaceOnUse" x="24" y="94" width="27" height="39">
<path d="M24.1067 94.28H50.0214V132.7H24.1067V94.28Z" fill="white"/>
</mask>
<g mask="url(#mask3_165_67)">
<path fill-rule="evenodd" clip-rule="evenodd" d="M49.7283 122.184C49.7283 124.55 49.7589 126.915 49.72 129.279C49.6847 131.442 48.3817 132.752 46.4065 132.708C44.5102 132.667 43.3673 131.406 43.352 129.257C43.3296 126.021 43.279 122.782 43.3779 119.55C43.4191 118.203 43.1448 117.695 41.6723 117.764C38.8779 117.895 36.0717 117.822 33.2726 117.795C30.7713 117.771 29.4036 116.726 28.7197 114.261C27.2601 109.011 25.8229 103.754 24.4269 98.4869C23.8006 96.1269 25.0283 94.599 27.4755 94.539C31.5717 94.439 35.0724 96.9603 36.2 101.001C37.0193 103.93 37.6314 106.921 37.7656 109.968C37.8197 111.205 38.1399 111.737 39.4888 111.659C41.4734 111.541 43.4697 111.621 45.4625 111.629C48.6606 111.642 49.7236 112.692 49.7294 115.835C49.7318 117.951 49.7283 120.068 49.7283 122.184Z" fill="black"/>
</g>
<path fill-rule="evenodd" clip-rule="evenodd" d="M56.7107 91.1725C58.6376 91.1725 60.5633 91.1513 62.4913 91.176C65.8731 91.2184 68.3179 93.6443 68.4191 97.0308C68.4356 97.5275 68.425 98.0255 68.425 98.5222C68.425 101.008 68.4227 100.938 66.0273 101.014C64.7772 101.054 64.1993 100.782 64.3547 99.4097C64.4218 98.8153 64.7184 97.7347 63.8262 97.7006C62.8339 97.6606 63.167 98.7588 63.2435 99.3273C63.4412 100.795 62.828 101.059 61.492 101.019C58.2621 100.919 55.0275 100.919 51.7975 101.019C50.4686 101.059 49.9884 100.647 50.1967 99.3591C50.245 99.0578 50.2132 98.7376 50.1826 98.4292C50.1473 98.0549 50.0708 97.6099 49.5976 97.637C49.1927 97.6606 48.9867 98.0078 49.0126 98.4386C49.0161 98.501 49.022 98.5634 49.0126 98.6246C48.8972 99.3932 49.4198 100.59 48.7089 100.853C47.7237 101.218 46.5089 100.966 45.393 100.976C45.0069 100.98 44.8386 100.756 44.8539 100.401C44.9375 98.4916 44.462 96.5094 45.3095 94.6967C46.3323 92.5132 48.0803 91.2349 50.5569 91.1807C52.6062 91.136 54.6578 91.1725 56.7107 91.1725Z" fill="black"/>
<path fill-rule="evenodd" clip-rule="evenodd" d="M56.8273 106.885C51.7222 106.885 46.6161 106.814 41.5146 106.928C39.9644 106.962 39.9514 106.233 40.0644 105.154C40.1656 104.177 39.5194 102.945 41.5122 102.961C51.6587 103.047 61.8063 103.046 71.9516 102.957C73.7007 102.941 73.31 103.949 73.2629 104.848C73.217 105.73 73.875 106.968 71.9516 106.924C66.9125 106.809 61.8687 106.885 56.8273 106.885Z" fill="black"/>
<mask id="mask4_165_67" style="mask-type:luminance" maskUnits="userSpaceOnUse" x="72" y="98" width="23" height="26">
<path d="M72.3199 98.1973H94.302V123.811H72.3199V98.1973Z" fill="white"/>
</mask>
<g mask="url(#mask4_165_67)">
<path fill-rule="evenodd" clip-rule="evenodd" d="M77.4427 123.702C76.3845 123.702 75.3263 123.695 74.2681 123.703C73.1663 123.713 72.4248 123.202 72.3718 122.097C72.3118 120.887 73.1569 120.535 74.2257 120.538C75.9666 120.544 77.7099 120.546 79.4519 120.537C83.3975 120.518 85.7164 118.769 86.7628 114.968C88.1282 110.016 89.4701 105.06 90.7908 100.097C91.0945 98.9552 91.5877 97.9771 92.9154 98.3702C94.1914 98.7457 94.1725 99.811 93.8594 100.966C92.5176 105.925 91.2828 110.914 89.9115 115.868C88.5167 120.905 84.7359 123.694 79.4967 123.702C78.8116 123.703 78.1265 123.702 77.4427 123.702Z" fill="#020202"/>
</g>
<path fill-rule="evenodd" clip-rule="evenodd" d="M35.3749 123.702C34.1107 123.602 32.6334 123.766 31.1362 123.471C26.9964 122.655 24.3644 120.183 23.2144 116.247C21.7383 111.196 20.4753 106.084 19.1358 100.993C18.8521 99.9101 18.7662 98.7306 20.0975 98.3599C21.4252 97.9903 21.9126 98.9602 22.2174 100.111C23.5146 105.02 24.8682 109.914 26.1818 114.818C27.2118 118.663 29.5954 120.524 33.5716 120.538C35.3136 120.544 37.0557 120.544 38.799 120.54C39.8678 120.536 40.7506 120.936 40.6906 122.09C40.6376 123.122 39.8843 123.717 38.7684 123.706C37.7102 123.693 36.652 123.702 35.3749 123.702Z" fill="#020202"/>
<path fill-rule="evenodd" clip-rule="evenodd" d="M88.2342 87.6272C88.2307 90.4522 85.9695 92.704 83.148 92.6922C80.3218 92.6793 78.0901 90.4228 78.1019 87.586C78.1136 84.7587 80.3583 82.5387 83.1951 82.5481C86.0425 82.5587 88.2365 84.7705 88.2342 87.6272Z" fill="#020202"/>
<path fill-rule="evenodd" clip-rule="evenodd" d="M34.877 87.4907C34.9005 90.3486 32.7158 92.6275 29.8979 92.684C27.1647 92.7393 24.7529 90.4098 24.6858 87.6508C24.6175 84.8234 26.974 82.521 29.9309 82.5281C32.697 82.5363 34.8534 84.6998 34.877 87.4907Z" fill="#020202"/>
<path fill-rule="evenodd" clip-rule="evenodd" d="M61.3649 84.7961C61.3755 87.4681 59.3474 89.4833 56.6695 89.4633C54.0529 89.4444 51.9282 87.3068 51.9671 84.7337C52.0047 82.2654 54.1353 80.1608 56.6342 80.1208C59.2579 80.0784 61.3555 82.15 61.3649 84.7961Z" fill="#020202"/>
<mask id="mask5_165_67" style="mask-type:luminance" maskUnits="userSpaceOnUse" x="7" y="101" width="48" height="41">
<path d="M7.53333 101.211H54.24V141.148H7.53333V101.211Z" fill="white"/>
</mask>
<g mask="url(#mask5_165_67)">
<path d="M53.4655 135.46C53.5562 132.894 53.2348 130.552 52.5168 128.445L52.5133 128.413L52.5074 128.416C51.0348 124.124 47.8791 120.834 42.9918 118.78C42.2538 118.47 41.5087 118.182 40.7577 117.901C38.6955 116.838 36.4684 116.03 34.1225 115.423C33.1632 115.175 32.2168 114.906 31.2822 114.608C28.5843 113.749 26.0042 112.645 23.6017 111.057C22.3552 110.231 21.5913 110.584 21.3288 112.06C21.2287 112.631 21.2935 113.298 21.4959 113.847C21.8691 114.87 22.3682 115.783 22.9861 116.584C23.7665 117.596 24.7423 118.421 25.89 119.067C26.2796 119.287 26.6822 119.492 27.1142 119.67C28.9834 120.436 30.9373 120.998 32.8442 121.686C33.501 121.924 34.2167 122.165 34.7134 122.617C35.0971 122.97 35.4479 123.734 35.3161 124.166C35.196 124.57 34.4356 124.997 33.933 125.029C33.0161 125.086 32.0497 124.963 31.1563 124.727C30.563 124.57 29.9839 124.384 29.4165 124.185C26.2007 123.056 23.3993 121.209 21.3759 118.394C18.9169 114.969 16.8041 111.29 14.5853 107.695C13.1704 105.4 11.7261 103.119 9.32137 101.743C8.87054 101.486 8.30319 101.424 7.73701 101.365C7.50159 102.732 7.5063 104.161 7.79351 105.643C8.57863 107.691 9.36609 109.736 10.2148 111.754C10.715 112.943 11.2341 114.122 11.7932 115.284C14.2851 120.477 17.3526 125.322 21.7784 129.176C25.3627 132.295 33.5752 136.342 33.5928 136.344C42.2385 141.108 52.3591 140.734 52.3591 140.734L54.2389 141.173L53.4655 135.46Z" fill="#172E73"/>
</g>
<mask id="mask6_165_67" style="mask-type:luminance" maskUnits="userSpaceOnUse" x="58" y="101" width="48" height="41">
<path d="M58.76 101.211H105.467V141.148H58.76V101.211Z" fill="white"/>
</mask>
<g mask="url(#mask6_165_67)">
<path d="M59.5334 135.46C59.4439 132.894 59.7629 130.552 60.4833 128.445L60.4868 128.413L60.4927 128.416C61.9664 124.124 65.121 120.834 70.0083 118.78C70.7463 118.47 71.489 118.182 72.2412 117.901C74.3046 116.838 76.5317 116.03 78.8776 115.423C79.8357 115.175 80.7833 114.906 81.7167 114.608C84.4158 113.749 86.9947 112.645 89.3984 111.057C90.6437 110.231 91.4076 110.584 91.6713 112.06C91.7714 112.631 91.7054 113.298 91.503 113.847C91.131 114.87 90.6308 115.783 90.014 116.584C89.2336 117.596 88.2566 118.421 87.1101 119.067C86.7205 119.287 86.3156 119.492 85.8848 119.67C84.0156 120.436 82.0604 120.998 80.1547 121.686C79.4991 121.924 78.7822 122.165 78.2867 122.617C77.9018 122.97 77.5498 123.734 77.6828 124.166C77.8041 124.57 78.5633 124.997 79.0647 125.029C79.984 125.086 80.9504 124.963 81.8427 124.727C82.4359 124.57 83.0139 124.384 83.5836 124.185C86.797 123.056 89.5996 121.209 91.6242 118.394C94.082 114.969 96.1948 111.29 98.4113 107.695C99.8297 105.4 101.272 103.119 103.676 101.743C104.13 101.486 104.696 101.424 105.263 101.365C105.497 102.732 105.493 104.161 105.205 105.643C104.42 107.691 103.632 109.736 102.784 111.754C102.283 112.943 101.766 114.122 101.207 115.284C98.7138 120.477 95.6475 125.322 91.2193 129.176C87.6374 132.295 79.4237 136.342 79.4073 136.344C70.7592 141.108 60.6387 140.734 60.6387 140.734L58.7612 141.173L59.5334 135.46Z" fill="#172E73"/>
</g>
<mask id="mask7_165_67" style="mask-type:luminance" maskUnits="userSpaceOnUse" x="5" y="33" width="103" height="57">
<path d="M5.08032 33.7979H107.91V89.4586H5.08032V33.7979Z" fill="white"/>
</mask>
<g mask="url(#mask7_165_67)">
<path d="M107.913 85.2424C107.913 86.6608 107.851 88.0686 107.748 89.4575C107.309 61.7525 84.5393 39.4327 56.5 39.4327C28.4607 39.4327 5.6912 61.7525 5.25333 89.4575C5.14857 88.0686 5.08618 86.6608 5.08618 85.2424C5.08618 56.8476 28.1052 33.8274 56.5 33.8274C84.8936 33.8274 107.913 56.8476 107.913 85.2424Z" fill="#256596"/>
</g>
</g>
<path d="M159.2 83L155.64 62.44L152.4 83H150L154.4 55C152.72 55.3733 151.427 56.1867 150.52 57.44C149.613 58.6667 149.16 60.4 149.16 62.64C149.16 63.5467 149.213 64.2933 149.32 64.88C149.453 65.44 149.6 65.8933 149.76 66.24C149.92 66.5867 150.08 66.84 150.24 67C150.427 67.1333 150.56 67.2267 150.64 67.28C149.2 67.28 148.04 66.92 147.16 66.2C146.28 65.4533 145.84 64.2933 145.84 62.72C145.84 61.4133 146.16 60.1733 146.8 59C147.44 57.8 148.253 56.76 149.24 55.88C150.227 55 151.307 54.3067 152.48 53.8C153.68 53.2667 154.84 53 155.96 53C156.387 53 156.8 53.04 157.2 53.12C157.627 53.2 158.027 53.3467 158.4 53.56L162.4 76.8L167.08 53.56H171.64L173.88 83H169.32L167.72 62.04L163.48 83H159.2ZM193.438 68C193.438 69.8667 192.665 71.4267 191.118 72.68C189.598 73.9333 187.478 74.7067 184.758 75C184.865 76.0667 185.051 76.9333 185.318 77.6C185.611 78.2667 185.958 78.8 186.358 79.2C186.758 79.5733 187.211 79.84 187.718 80C188.251 80.1333 188.798 80.2 189.358 80.2C190.638 80.2 191.838 79.8667 192.958 79.2C194.078 78.5333 194.985 77.4133 195.678 75.84H196.958C196.611 76.8267 196.131 77.7733 195.518 78.68C194.905 79.56 194.185 80.3467 193.358 81.04C192.531 81.7067 191.638 82.24 190.678 82.64C189.718 83.04 188.731 83.24 187.718 83.24C186.785 83.24 185.878 83.08 184.998 82.76C184.145 82.44 183.385 81.92 182.718 81.2C182.051 80.4533 181.505 79.4933 181.078 78.32C180.678 77.1467 180.478 75.7067 180.478 74C180.478 72.88 180.598 71.6667 180.838 70.36C181.105 69.0533 181.531 67.84 182.118 66.72C182.731 65.6 183.518 64.6667 184.478 63.92C185.465 63.1733 186.678 62.8 188.118 62.8C188.785 62.8 189.425 62.88 190.038 63.04C190.678 63.1733 191.251 63.44 191.758 63.84C192.265 64.2133 192.665 64.7333 192.958 65.4C193.278 66.0667 193.438 66.9333 193.438 68ZM184.718 73.44C186.611 73.1467 188.105 72.48 189.198 71.44C190.318 70.4 190.878 69.12 190.878 67.6C190.878 66.5867 190.705 65.8667 190.358 65.44C190.011 64.9867 189.518 64.76 188.878 64.76C188.185 64.76 187.571 65.0267 187.038 65.56C186.531 66.0933 186.105 66.7867 185.758 67.64C185.411 68.4667 185.145 69.4 184.958 70.44C184.798 71.4533 184.718 72.4533 184.718 73.44ZM212.165 68C212.165 69.8667 211.391 71.4267 209.845 72.68C208.325 73.9333 206.205 74.7067 203.485 75C203.591 76.0667 203.778 76.9333 204.045 77.6C204.338 78.2667 204.685 78.8 205.085 79.2C205.485 79.5733 205.938 79.84 206.445 80C206.978 80.1333 207.525 80.2 208.085 80.2C209.365 80.2 210.565 79.8667 211.685 79.2C212.805 78.5333 213.711 77.4133 214.405 75.84H215.685C215.338 76.8267 214.858 77.7733 214.245 78.68C213.631 79.56 212.911 80.3467 212.085 81.04C211.258 81.7067 210.365 82.24 209.405 82.64C208.445 83.04 207.458 83.24 206.445 83.24C205.511 83.24 204.605 83.08 203.725 82.76C202.871 82.44 202.111 81.92 201.445 81.2C200.778 80.4533 200.231 79.4933 199.805 78.32C199.405 77.1467 199.205 75.7067 199.205 74C199.205 72.88 199.325 71.6667 199.565 70.36C199.831 69.0533 200.258 67.84 200.845 66.72C201.458 65.6 202.245 64.6667 203.205 63.92C204.191 63.1733 205.405 62.8 206.845 62.8C207.511 62.8 208.151 62.88 208.765 63.04C209.405 63.1733 209.978 63.44 210.485 63.84C210.991 64.2133 211.391 64.7333 211.685 65.4C212.005 66.0667 212.165 66.9333 212.165 68ZM203.445 73.44C205.338 73.1467 206.831 72.48 207.925 71.44C209.045 70.4 209.605 69.12 209.605 67.6C209.605 66.5867 209.431 65.8667 209.085 65.44C208.738 64.9867 208.245 64.76 207.605 64.76C206.911 64.76 206.298 65.0267 205.765 65.56C205.258 66.0933 204.831 66.7867 204.485 67.64C204.138 68.4667 203.871 69.4 203.685 70.44C203.525 71.4533 203.445 72.4533 203.445 73.44ZM222.411 56.92V63H225.491V64.4H222.411V76.6C222.411 76.92 222.425 77.2933 222.451 77.72C222.478 78.12 222.545 78.5067 222.651 78.88C222.785 79.2533 222.971 79.5733 223.211 79.84C223.478 80.08 223.838 80.2 224.291 80.2C225.011 80.2 225.691 79.84 226.331 79.12C226.998 78.4 227.518 77.3067 227.891 75.84H229.371C228.918 77.52 228.425 78.8533 227.891 79.84C227.385 80.8 226.851 81.5333 226.291 82.04C225.731 82.5467 225.171 82.8667 224.611 83C224.078 83.16 223.585 83.24 223.131 83.24C222.171 83.24 221.385 83.0667 220.771 82.72C220.158 82.3467 219.678 81.88 219.331 81.32C218.985 80.76 218.745 80.1467 218.611 79.48C218.478 78.7867 218.411 78.1067 218.411 77.44V64.4H217.051V63H218.411V57.48L222.411 56.92ZM265.858 57.8C264.898 57.8 263.858 57.7067 262.738 57.52C261.645 57.3333 260.498 57.1067 259.298 56.84V83H254.978V56.2C254.685 56.1467 254.405 56.12 254.138 56.12C253.898 56.12 253.645 56.12 253.378 56.12C251.138 56.12 249.418 56.5333 248.218 57.36C247.045 58.16 246.458 59.6267 246.458 61.76C246.458 63.36 246.631 64.5867 246.978 65.44C247.351 66.2667 247.725 66.8933 248.098 67.32C247.431 67.32 246.805 67.2267 246.218 67.04C245.658 66.8267 245.165 66.4933 244.738 66.04C244.311 65.5867 243.978 65 243.738 64.28C243.498 63.5333 243.378 62.6133 243.378 61.52C243.378 60.4267 243.591 59.3733 244.018 58.36C244.445 57.3467 245.125 56.4533 246.058 55.68C247.018 54.88 248.245 54.24 249.738 53.76C251.258 53.28 253.111 53.04 255.298 53.04C256.365 53.04 257.325 53.0933 258.178 53.2C259.058 53.28 259.871 53.3867 260.618 53.52C261.391 53.6267 262.151 53.7333 262.898 53.84C263.645 53.92 264.431 53.96 265.258 53.96C266.378 53.96 267.311 53.88 268.058 53.72C268.831 53.5333 269.471 53.3333 269.978 53.12C270.058 53.6 270.098 54.0533 270.098 54.48C270.098 56.6933 268.685 57.8 265.858 57.8ZM279.294 63V76.6C279.294 76.8667 279.307 77.2 279.334 77.6C279.361 78 279.427 78.4 279.534 78.8C279.667 79.1733 279.854 79.5067 280.094 79.8C280.334 80.0667 280.667 80.2 281.094 80.2C282.401 80.2 283.361 78.7467 283.974 75.84H285.454C285.161 77.52 284.787 78.8533 284.334 79.84C283.881 80.8 283.401 81.5333 282.894 82.04C282.387 82.5467 281.867 82.8667 281.334 83C280.801 83.16 280.321 83.24 279.894 83.24C278.961 83.24 278.201 83.0667 277.614 82.72C277.027 82.3467 276.561 81.88 276.214 81.32C275.867 80.76 275.627 80.1333 275.494 79.44C275.361 78.7467 275.294 78.08 275.294 77.44V63H279.294ZM274.574 57.24C274.574 56.52 274.827 55.8933 275.334 55.36C275.841 54.8267 276.467 54.56 277.214 54.56C277.934 54.56 278.561 54.8267 279.094 55.36C279.627 55.8933 279.894 56.52 279.894 57.24C279.894 57.9867 279.627 58.6133 279.094 59.12C278.561 59.6267 277.934 59.88 277.214 59.88C276.467 59.88 275.841 59.6267 275.334 59.12C274.827 58.6133 274.574 57.9867 274.574 57.24ZM291.926 63V65.76C292.619 64.48 293.353 63.6667 294.126 63.32C294.899 62.9733 295.633 62.8 296.326 62.8C297.019 62.8 297.619 62.8933 298.126 63.08C298.659 63.2667 299.113 63.52 299.486 63.84C299.859 64.16 300.166 64.5333 300.406 64.96C300.673 65.3867 300.886 65.8533 301.046 66.36C301.419 65.56 301.806 64.9333 302.206 64.48C302.606 64 303.006 63.64 303.406 63.4C303.806 63.1333 304.193 62.9733 304.566 62.92C304.966 62.84 305.326 62.8 305.646 62.8C306.846 62.8 307.806 63.0267 308.526 63.48C309.273 63.9333 309.833 64.52 310.206 65.24C310.579 65.9333 310.819 66.7067 310.926 67.56C311.059 68.3867 311.126 69.1867 311.126 69.96C311.126 70.44 311.113 70.9733 311.086 71.56C311.059 72.12 311.033 72.7067 311.006 73.32C310.979 73.9067 310.953 74.5067 310.926 75.12C310.899 75.7067 310.886 76.2533 310.886 76.76C310.886 76.9733 310.899 77.28 310.926 77.68C310.953 78.0533 311.019 78.4267 311.126 78.8C311.233 79.1733 311.406 79.5067 311.646 79.8C311.886 80.0667 312.233 80.2 312.686 80.2C313.299 80.2 313.846 79.8533 314.326 79.16C314.833 78.4667 315.246 77.36 315.566 75.84H317.046C316.753 77.52 316.379 78.8533 315.926 79.84C315.473 80.8 314.993 81.5333 314.486 82.04C313.979 82.5467 313.473 82.8667 312.966 83C312.459 83.16 311.993 83.24 311.566 83.24C310.713 83.24 309.993 83.08 309.406 82.76C308.819 82.4133 308.339 81.96 307.966 81.4C307.593 80.84 307.313 80.1867 307.126 79.44C306.966 78.6933 306.886 77.92 306.886 77.12C306.886 76.88 306.886 76.44 306.886 75.8C306.913 75.1333 306.926 74.4267 306.926 73.68C306.953 72.9333 306.966 72.2267 306.966 71.56C306.993 70.8933 307.006 70.4267 307.006 70.16C307.006 69.3067 306.939 68.6 306.806 68.04C306.673 67.48 306.486 67.04 306.246 66.72C306.006 66.4 305.726 66.1733 305.406 66.04C305.113 65.9067 304.793 65.84 304.446 65.84C303.619 65.84 302.939 66.1733 302.406 66.84C301.899 67.5067 301.539 68.6267 301.326 70.2V83H297.326V69.64C297.326 69.16 297.299 68.6933 297.246 68.24C297.219 67.7867 297.126 67.3867 296.966 67.04C296.806 66.6667 296.579 66.3733 296.286 66.16C295.993 65.9467 295.593 65.84 295.086 65.84C294.233 65.84 293.579 66.2 293.126 66.92C292.699 67.6133 292.299 68.7067 291.926 70.2V83H287.926V63H291.926ZM332.18 68C332.18 69.8667 331.407 71.4267 329.86 72.68C328.34 73.9333 326.22 74.7067 323.5 75C323.607 76.0667 323.794 76.9333 324.06 77.6C324.354 78.2667 324.7 78.8 325.1 79.2C325.5 79.5733 325.954 79.84 326.46 80C326.994 80.1333 327.54 80.2 328.1 80.2C329.38 80.2 330.58 79.8667 331.7 79.2C332.82 78.5333 333.727 77.4133 334.42 75.84H335.7C335.354 76.8267 334.874 77.7733 334.26 78.68C333.647 79.56 332.927 80.3467 332.1 81.04C331.274 81.7067 330.38 82.24 329.42 82.64C328.46 83.04 327.474 83.24 326.46 83.24C325.527 83.24 324.62 83.08 323.74 82.76C322.887 82.44 322.127 81.92 321.46 81.2C320.794 80.4533 320.247 79.4933 319.82 78.32C319.42 77.1467 319.22 75.7067 319.22 74C319.22 72.88 319.34 71.6667 319.58 70.36C319.847 69.0533 320.274 67.84 320.86 66.72C321.474 65.6 322.26 64.6667 323.22 63.92C324.207 63.1733 325.42 62.8 326.86 62.8C327.527 62.8 328.167 62.88 328.78 63.04C329.42 63.1733 329.994 63.44 330.5 63.84C331.007 64.2133 331.407 64.7333 331.7 65.4C332.02 66.0667 332.18 66.9333 332.18 68ZM323.46 73.44C325.354 73.1467 326.847 72.48 327.94 71.44C329.06 70.4 329.62 69.12 329.62 67.6C329.62 66.5867 329.447 65.8667 329.1 65.44C328.754 64.9867 328.26 64.76 327.62 64.76C326.927 64.76 326.314 65.0267 325.78 65.56C325.274 66.0933 324.847 66.7867 324.5 67.64C324.154 68.4667 323.887 69.4 323.7 70.44C323.54 71.4533 323.46 72.4533 323.46 73.44Z" fill="white"/>
<path d="M144.54 113V112.52C145.227 112.407 145.743 112.27 146.09 112.11C146.437 111.943 146.697 111.72 146.87 111.44C147.043 111.153 147.213 110.777 147.38 110.31L151.21 99.72L150.65 98.45L152.73 97.37L158.01 111.3C158.123 111.607 158.247 111.84 158.38 112C158.52 112.16 158.717 112.277 158.97 112.35C159.223 112.423 159.58 112.48 160.04 112.52V113H153.5V112.52C154.147 112.48 154.63 112.433 154.95 112.38C155.27 112.32 155.453 112.19 155.5 111.99C155.547 111.783 155.487 111.447 155.32 110.98L151.72 101.11H151.66L148.27 110.54C148.123 110.947 148.083 111.28 148.15 111.54C148.217 111.793 148.413 111.997 148.74 112.15C149.067 112.297 149.543 112.42 150.17 112.52V113H144.54ZM149.02 107.56V106.72H154.5V107.56H149.02ZM163.854 113.21C163.428 113.21 162.954 113.167 162.434 113.08C161.921 113 161.471 112.897 161.084 112.77L160.954 109.56H161.474C161.561 110.547 161.814 111.293 162.234 111.8C162.654 112.3 163.238 112.55 163.984 112.55C164.564 112.55 165.028 112.39 165.374 112.07C165.728 111.743 165.904 111.317 165.904 110.79C165.904 110.35 165.774 109.973 165.514 109.66C165.254 109.34 164.804 109.017 164.164 108.69L163.334 108.28C162.481 107.853 161.871 107.407 161.504 106.94C161.138 106.467 160.954 105.897 160.954 105.23C160.954 104.297 161.278 103.577 161.924 103.07C162.578 102.563 163.508 102.31 164.714 102.31C165.181 102.31 165.631 102.343 166.064 102.41C166.504 102.47 166.848 102.553 167.094 102.66V105.4H166.634C166.441 103.773 165.684 102.96 164.364 102.96C163.851 102.96 163.438 103.1 163.124 103.38C162.818 103.653 162.664 104.027 162.664 104.5C162.664 104.913 162.798 105.267 163.064 105.56C163.338 105.853 163.798 106.157 164.444 106.47L165.354 106.91C166.141 107.297 166.708 107.723 167.054 108.19C167.401 108.657 167.574 109.247 167.574 109.96C167.574 110.953 167.241 111.743 166.574 112.33C165.908 112.917 165.001 113.21 163.854 113.21ZM169.135 113V112.56L170.655 112.25V104.1L169.165 103.57V103.26L172.485 102.31H172.705V112.25L174.205 112.56V113H169.135ZM171.665 100.21C171.258 100.21 170.935 100.08 170.695 99.82C170.455 99.56 170.335 99.2567 170.335 98.91C170.335 98.53 170.455 98.21 170.695 97.95C170.935 97.69 171.258 97.56 171.665 97.56C172.078 97.56 172.405 97.69 172.645 97.95C172.892 98.21 173.015 98.53 173.015 98.91C173.015 99.2567 172.892 99.56 172.645 99.82C172.405 100.08 172.078 100.21 171.665 100.21ZM178.659 113.21C178.232 113.21 177.759 113.167 177.239 113.08C176.726 113 176.276 112.897 175.889 112.77L175.759 109.56H176.279C176.366 110.547 176.619 111.293 177.039 111.8C177.459 112.3 178.042 112.55 178.789 112.55C179.369 112.55 179.832 112.39 180.179 112.07C180.532 111.743 180.709 111.317 180.709 110.79C180.709 110.35 180.579 109.973 180.319 109.66C180.059 109.34 179.609 109.017 178.969 108.69L178.139 108.28C177.286 107.853 176.676 107.407 176.309 106.94C175.942 106.467 175.759 105.897 175.759 105.23C175.759 104.297 176.082 103.577 176.729 103.07C177.382 102.563 178.312 102.31 179.519 102.31C179.986 102.31 180.436 102.343 180.869 102.41C181.309 102.47 181.652 102.553 181.899 102.66V105.4H181.439C181.246 103.773 180.489 102.96 179.169 102.96C178.656 102.96 178.242 103.1 177.929 103.38C177.622 103.653 177.469 104.027 177.469 104.5C177.469 104.913 177.602 105.267 177.869 105.56C178.142 105.853 178.602 106.157 179.249 106.47L180.159 106.91C180.946 107.297 181.512 107.723 181.859 108.19C182.206 108.657 182.379 109.247 182.379 109.96C182.379 110.953 182.046 111.743 181.379 112.33C180.712 112.917 179.806 113.21 178.659 113.21ZM187.393 113.21C186.653 113.21 186.089 113 185.703 112.58C185.316 112.16 185.123 111.557 185.123 110.77V103.25H183.823L183.763 102.89L186.763 99.91L187.153 99.95V102.51H190.013L189.843 103.25H187.153V110.57C187.153 111.663 187.546 112.21 188.333 112.21C188.599 112.21 188.863 112.14 189.123 112C189.389 111.86 189.616 111.667 189.803 111.42L190.153 111.73C189.846 112.183 189.446 112.543 188.953 112.81C188.466 113.077 187.946 113.21 187.393 113.21ZM196.043 113.21C195.076 113.21 194.226 112.99 193.493 112.55C192.766 112.103 192.2 111.483 191.793 110.69C191.393 109.89 191.193 108.967 191.193 107.92C191.193 106.807 191.416 105.83 191.863 104.99C192.316 104.15 192.946 103.493 193.753 103.02C194.566 102.547 195.506 102.31 196.573 102.31C197.893 102.31 198.903 102.693 199.603 103.46C200.31 104.227 200.676 105.35 200.703 106.83L200.563 106.95H192.813V106.37L198.413 106.17C198.46 105.997 198.483 105.733 198.483 105.38C198.483 103.78 197.78 102.98 196.373 102.98C195.406 102.98 194.66 103.36 194.133 104.12C193.613 104.873 193.353 105.943 193.353 107.33C193.353 110.23 194.48 111.68 196.733 111.68C198.2 111.68 199.323 111.147 200.103 110.08L200.473 110.31C200.126 111.23 199.563 111.943 198.783 112.45C198.01 112.957 197.096 113.21 196.043 113.21ZM208.604 113V112.56L210.064 112.27V105.85C210.064 105.057 209.904 104.467 209.584 104.08C209.264 103.687 208.748 103.49 208.034 103.49C206.988 103.49 206.118 103.967 205.424 104.92V104.09C205.984 103.53 206.598 103.093 207.264 102.78C207.931 102.467 208.594 102.31 209.254 102.31C211.154 102.31 212.104 103.207 212.104 105V112.27L213.584 112.56V113H208.604ZM202.094 113V112.56L203.594 112.25V104.12L202.114 103.57V103.28L205.314 102.31H205.534V104.08L205.634 104.18V112.25L207.104 112.56V113H202.094ZM220.276 113V112.52L221.976 112.12V98.64L220.276 98.25V97.77H226.506C227.559 97.77 228.489 97.9467 229.296 98.3C230.103 98.6467 230.733 99.1567 231.186 99.83C231.639 100.497 231.866 101.317 231.866 102.29C231.866 103.65 231.359 104.69 230.346 105.41C229.333 106.13 227.949 106.49 226.196 106.49H224.226V112.12L226.506 112.52V113H220.276ZM224.226 105.69H225.536C226.336 105.69 226.973 105.6 227.446 105.42C227.926 105.233 228.309 104.977 228.596 104.65C228.896 104.31 229.103 103.923 229.216 103.49C229.336 103.05 229.396 102.587 229.396 102.1C229.396 101.28 229.249 100.597 228.956 100.05C228.663 99.5033 228.249 99.1133 227.716 98.88C227.309 98.68 226.696 98.58 225.876 98.58H224.226V105.69ZM237.762 113.21C236.795 113.21 235.945 112.99 235.212 112.55C234.485 112.103 233.918 111.483 233.512 110.69C233.112 109.89 232.912 108.967 232.912 107.92C232.912 106.807 233.135 105.83 233.582 104.99C234.035 104.15 234.665 103.493 235.472 103.02C236.285 102.547 237.225 102.31 238.292 102.31C239.612 102.31 240.622 102.693 241.322 103.46C242.028 104.227 242.395 105.35 242.422 106.83L242.282 106.95H234.532V106.37L240.132 106.17C240.178 105.997 240.202 105.733 240.202 105.38C240.202 103.78 239.498 102.98 238.092 102.98C237.125 102.98 236.378 103.36 235.852 104.12C235.332 104.873 235.072 105.943 235.072 107.33C235.072 110.23 236.198 111.68 238.452 111.68C239.918 111.68 241.042 111.147 241.822 110.08L242.192 110.31C241.845 111.23 241.282 111.943 240.502 112.45C239.728 112.957 238.815 113.21 237.762 113.21ZM250.323 113V112.56L251.783 112.27V105.85C251.783 105.057 251.623 104.467 251.303 104.08C250.983 103.687 250.466 103.49 249.753 103.49C248.706 103.49 247.836 103.967 247.143 104.92V104.09C247.703 103.53 248.316 103.093 248.983 102.78C249.65 102.467 250.313 102.31 250.973 102.31C252.873 102.31 253.823 103.207 253.823 105V112.27L255.303 112.56V113H250.323ZM243.813 113V112.56L245.313 112.25V104.12L243.833 103.57V103.28L247.033 102.31H247.253V104.08L247.353 104.18V112.25L248.823 112.56V113H243.813ZM255.163 118.15C254.436 118.15 253.863 117.997 253.443 117.69C253.016 117.39 252.803 116.983 252.803 116.47C252.803 116.097 252.903 115.803 253.103 115.59C253.303 115.383 253.569 115.28 253.903 115.28C254.196 115.28 254.429 115.353 254.603 115.5C254.769 115.653 254.909 115.887 255.023 116.2C255.176 116.587 255.326 116.85 255.473 116.99C255.613 117.13 255.806 117.2 256.053 117.2C256.606 117.2 257.013 116.93 257.273 116.39C257.539 115.857 257.673 115.04 257.673 113.94V104.1L256.183 103.57V103.26L259.513 102.31H259.703V110.16C259.703 111.073 259.693 111.827 259.673 112.42C259.659 113.007 259.629 113.49 259.583 113.87C259.536 114.25 259.466 114.573 259.373 114.84C259.286 115.107 259.169 115.373 259.023 115.64C258.576 116.453 258.023 117.073 257.363 117.5C256.709 117.933 255.976 118.15 255.163 118.15ZM258.683 100.21C258.276 100.21 257.953 100.083 257.713 99.83C257.479 99.5767 257.363 99.26 257.363 98.88C257.363 98.5067 257.483 98.1933 257.723 97.94C257.963 97.6867 258.283 97.56 258.683 97.56C259.076 97.56 259.399 97.6867 259.653 97.94C259.906 98.1933 260.033 98.5067 260.033 98.88C260.033 99.26 259.909 99.5767 259.663 99.83C259.416 100.083 259.089 100.21 258.683 100.21ZM264.746 113.21C264.033 113.21 263.453 112.987 263.006 112.54C262.566 112.093 262.346 111.513 262.346 110.8C262.346 110.213 262.526 109.707 262.886 109.28C263.246 108.853 263.826 108.48 264.626 108.16C265.433 107.833 266.496 107.537 267.816 107.27V105.4C267.816 104.553 267.7 103.96 267.466 103.62C267.24 103.28 266.846 103.11 266.286 103.11C265.733 103.11 265.293 103.243 264.966 103.51C264.64 103.777 264.476 104.137 264.476 104.59C264.476 104.717 264.483 104.843 264.496 104.97C264.516 105.09 264.526 105.207 264.526 105.32C264.526 105.66 264.423 105.94 264.216 106.16C264.016 106.38 263.76 106.49 263.446 106.49C263.16 106.49 262.926 106.397 262.746 106.21C262.573 106.023 262.486 105.78 262.486 105.48C262.486 105.047 262.673 104.603 263.046 104.15C263.426 103.69 263.926 103.297 264.546 102.97C265.373 102.53 266.27 102.31 267.236 102.31C267.816 102.31 268.306 102.4 268.706 102.58C269.113 102.76 269.406 103.017 269.586 103.35C269.693 103.577 269.763 103.863 269.796 104.21C269.836 104.557 269.856 105.137 269.856 105.95V110.42C269.856 111.067 269.906 111.507 270.006 111.74C270.113 111.973 270.31 112.09 270.596 112.09C270.923 112.09 271.24 111.903 271.546 111.53L271.906 111.87C271.58 112.343 271.246 112.687 270.906 112.9C270.573 113.107 270.183 113.21 269.736 113.21C269.196 113.21 268.776 113.063 268.476 112.77C268.176 112.477 267.976 112.03 267.876 111.43H267.816C267.436 111.977 266.976 112.41 266.436 112.73C265.896 113.05 265.333 113.21 264.746 113.21ZM265.746 111.94C266.16 111.94 266.546 111.833 266.906 111.62C267.266 111.4 267.57 111.097 267.816 110.71V107.89C266.923 108.063 266.22 108.253 265.706 108.46C265.2 108.667 264.84 108.92 264.626 109.22C264.42 109.513 264.316 109.883 264.316 110.33C264.316 110.843 264.436 111.24 264.676 111.52C264.923 111.8 265.28 111.94 265.746 111.94ZM277.013 113.21C276.226 113.21 275.52 112.98 274.893 112.52C274.266 112.06 273.77 111.433 273.403 110.64C273.043 109.84 272.863 108.937 272.863 107.93C272.863 106.823 273.083 105.85 273.523 105.01C273.963 104.163 274.576 103.503 275.363 103.03C276.15 102.55 277.06 102.31 278.093 102.31C278.826 102.31 279.546 102.42 280.253 102.64V98.39L278.773 97.82V97.54L282.043 96.57H282.273V111.41L283.643 111.72V111.96L280.553 113.21H280.393V111.56L280.303 111.53C279.89 112.083 279.4 112.503 278.833 112.79C278.273 113.07 277.666 113.21 277.013 113.21ZM277.893 111.89C278.386 111.89 278.843 111.787 279.263 111.58C279.69 111.373 280.02 111.093 280.253 110.74V105.18C280.253 104.467 280.066 103.92 279.693 103.54C279.326 103.16 278.796 102.97 278.103 102.97C277.21 102.97 276.486 103.393 275.933 104.24C275.386 105.087 275.113 106.21 275.113 107.61C275.113 108.93 275.36 109.973 275.853 110.74C276.346 111.507 277.026 111.89 277.893 111.89ZM294.626 113.21L291.506 103.8C291.419 103.487 291.279 103.277 291.086 103.17C290.899 103.057 290.616 102.983 290.236 102.95V102.51H295.036V102.95C294.349 102.997 293.932 103.08 293.786 103.2C293.639 103.32 293.629 103.59 293.756 104.01L295.706 110.42H295.786L297.866 104.44C297.926 104.287 297.969 104.147 297.996 104.02C298.029 103.893 298.046 103.78 298.046 103.68C298.046 103.473 297.946 103.32 297.746 103.22C297.546 103.113 297.176 103.023 296.636 102.95V102.51H300.746V102.95C300.246 103.03 299.869 103.127 299.616 103.24C299.362 103.353 299.172 103.507 299.046 103.7C298.926 103.887 298.806 104.143 298.686 104.47L295.606 113.21H294.626ZM288.536 113.21L285.236 103.8C285.129 103.487 284.986 103.277 284.806 103.17C284.626 103.057 284.286 102.983 283.786 102.95V102.51H288.936V102.95C288.476 102.977 288.139 103.02 287.926 103.08C287.719 103.133 287.602 103.23 287.576 103.37C287.556 103.51 287.586 103.723 287.666 104.01L289.616 110.42H289.686L291.896 104.29L292.716 104.33L289.486 113.21H288.536ZM303.262 113.21C302.549 113.21 301.969 112.987 301.522 112.54C301.082 112.093 300.862 111.513 300.862 110.8C300.862 110.213 301.042 109.707 301.402 109.28C301.762 108.853 302.342 108.48 303.142 108.16C303.949 107.833 305.012 107.537 306.332 107.27V105.4C306.332 104.553 306.215 103.96 305.982 103.62C305.755 103.28 305.362 103.11 304.802 103.11C304.249 103.11 303.809 103.243 303.482 103.51C303.155 103.777 302.992 104.137 302.992 104.59C302.992 104.717 302.999 104.843 303.012 104.97C303.032 105.09 303.042 105.207 303.042 105.32C303.042 105.66 302.939 105.94 302.732 106.16C302.532 106.38 302.275 106.49 301.962 106.49C301.675 106.49 301.442 106.397 301.262 106.21C301.089 106.023 301.002 105.78 301.002 105.48C301.002 105.047 301.189 104.603 301.562 104.15C301.942 103.69 302.442 103.297 303.062 102.97C303.889 102.53 304.785 102.31 305.752 102.31C306.332 102.31 306.822 102.4 307.222 102.58C307.629 102.76 307.922 103.017 308.102 103.35C308.209 103.577 308.279 103.863 308.312 104.21C308.352 104.557 308.372 105.137 308.372 105.95V110.42C308.372 111.067 308.422 111.507 308.522 111.74C308.629 111.973 308.825 112.09 309.112 112.09C309.439 112.09 309.755 111.903 310.062 111.53L310.422 111.87C310.095 112.343 309.762 112.687 309.422 112.9C309.089 113.107 308.699 113.21 308.252 113.21C307.712 113.21 307.292 113.063 306.992 112.77C306.692 112.477 306.492 112.03 306.392 111.43H306.332C305.952 111.977 305.492 112.41 304.952 112.73C304.412 113.05 303.849 113.21 303.262 113.21ZM304.262 111.94C304.675 111.94 305.062 111.833 305.422 111.62C305.782 111.4 306.085 111.097 306.332 110.71V107.89C305.439 108.063 304.735 108.253 304.222 108.46C303.715 108.667 303.355 108.92 303.142 109.22C302.935 109.513 302.832 109.883 302.832 110.33C302.832 110.843 302.952 111.24 303.192 111.52C303.439 111.8 303.795 111.94 304.262 111.94ZM310.909 113V112.56L312.429 112.25V98.35L310.929 97.82V97.51L314.259 96.57H314.469V112.25L315.969 112.56V113H310.909ZM319.746 113.21C319.033 113.21 318.453 112.987 318.006 112.54C317.566 112.093 317.346 111.513 317.346 110.8C317.346 110.213 317.526 109.707 317.886 109.28C318.246 108.853 318.826 108.48 319.626 108.16C320.433 107.833 321.496 107.537 322.816 107.27V105.4C322.816 104.553 322.7 103.96 322.466 103.62C322.24 103.28 321.846 103.11 321.286 103.11C320.733 103.11 320.293 103.243 319.966 103.51C319.64 103.777 319.476 104.137 319.476 104.59C319.476 104.717 319.483 104.843 319.496 104.97C319.516 105.09 319.526 105.207 319.526 105.32C319.526 105.66 319.423 105.94 319.216 106.16C319.016 106.38 318.76 106.49 318.446 106.49C318.16 106.49 317.926 106.397 317.746 106.21C317.573 106.023 317.486 105.78 317.486 105.48C317.486 105.047 317.673 104.603 318.046 104.15C318.426 103.69 318.926 103.297 319.546 102.97C320.373 102.53 321.27 102.31 322.236 102.31C322.816 102.31 323.306 102.4 323.706 102.58C324.113 102.76 324.406 103.017 324.586 103.35C324.693 103.577 324.763 103.863 324.796 104.21C324.836 104.557 324.856 105.137 324.856 105.95V110.42C324.856 111.067 324.906 111.507 325.006 111.74C325.113 111.973 325.31 112.09 325.596 112.09C325.923 112.09 326.24 111.903 326.546 111.53L326.906 111.87C326.58 112.343 326.246 112.687 325.906 112.9C325.573 113.107 325.183 113.21 324.736 113.21C324.196 113.21 323.776 113.063 323.476 112.77C323.176 112.477 322.976 112.03 322.876 111.43H322.816C322.436 111.977 321.976 112.41 321.436 112.73C320.896 113.05 320.333 113.21 319.746 113.21ZM320.746 111.94C321.16 111.94 321.546 111.833 321.906 111.62C322.266 111.4 322.57 111.097 322.816 110.71V107.89C321.923 108.063 321.22 108.253 320.706 108.46C320.2 108.667 319.84 108.92 319.626 109.22C319.42 109.513 319.316 109.883 319.316 110.33C319.316 110.843 319.436 111.24 319.676 111.52C319.923 111.8 320.28 111.94 320.746 111.94ZM334.073 113V112.56L335.533 112.27V105.85C335.533 105.057 335.373 104.467 335.053 104.08C334.733 103.687 334.216 103.49 333.503 103.49C332.456 103.49 331.586 103.967 330.893 104.92V104.09C331.453 103.53 332.066 103.093 332.733 102.78C333.4 102.467 334.063 102.31 334.723 102.31C336.623 102.31 337.573 103.207 337.573 105V112.27L339.053 112.56V113H334.073ZM327.563 113V112.56L329.063 112.25V104.12L327.583 103.57V103.28L330.783 102.31H331.003V104.08L331.103 104.18V112.25L332.573 112.56V113H327.563ZM353.135 113.21C351.701 113.21 350.438 112.883 349.345 112.23C348.258 111.577 347.408 110.67 346.795 109.51C346.188 108.343 345.885 107 345.885 105.48C345.885 104.32 346.061 103.257 346.415 102.29C346.775 101.323 347.281 100.487 347.935 99.78C348.588 99.0733 349.361 98.5267 350.255 98.14C351.148 97.7533 352.128 97.56 353.195 97.56C353.981 97.56 354.745 97.6667 355.485 97.88C356.231 98.0867 356.905 98.3867 357.505 98.78H357.585L358.545 97.77H358.935V102.36H358.285C358.171 101.993 358.045 101.663 357.905 101.37C357.771 101.077 357.628 100.807 357.475 100.56C357.008 99.8133 356.458 99.28 355.825 98.96C355.191 98.64 354.438 98.48 353.565 98.48C351.951 98.48 350.708 99.07 349.835 100.25C348.968 101.43 348.535 103.123 348.535 105.33C348.535 107.537 348.971 109.243 349.845 110.45C350.725 111.657 351.965 112.26 353.565 112.26C354.358 112.26 355.075 112.103 355.715 111.79C356.355 111.47 356.888 111.003 357.315 110.39C357.561 110.043 357.771 109.65 357.945 109.21C358.125 108.77 358.261 108.29 358.355 107.77H358.935V113H358.425L357.525 111.7C356.818 112.227 356.111 112.61 355.405 112.85C354.705 113.09 353.948 113.21 353.135 113.21ZM365.965 113.21C364.998 113.21 364.148 112.99 363.415 112.55C362.688 112.103 362.122 111.483 361.715 110.69C361.315 109.89 361.115 108.967 361.115 107.92C361.115 106.807 361.338 105.83 361.785 104.99C362.238 104.15 362.868 103.493 363.675 103.02C364.488 102.547 365.428 102.31 366.495 102.31C367.815 102.31 368.825 102.693 369.525 103.46C370.232 104.227 370.598 105.35 370.625 106.83L370.485 106.95H362.735V106.37L368.335 106.17C368.382 105.997 368.405 105.733 368.405 105.38C368.405 103.78 367.702 102.98 366.295 102.98C365.328 102.98 364.582 103.36 364.055 104.12C363.535 104.873 363.275 105.943 363.275 107.33C363.275 110.23 364.402 111.68 366.655 111.68C368.122 111.68 369.245 111.147 370.025 110.08L370.395 110.31C370.048 111.23 369.485 111.943 368.705 112.45C367.932 112.957 367.018 113.21 365.965 113.21ZM372.026 113V112.56L373.526 112.25V104.1L372.066 103.55V103.26L375.266 102.3H375.486V104.46L375.566 104.56V112.25L377.626 112.56V113H372.026ZM375.416 105.38L375.376 104.56C375.87 103.833 376.36 103.273 376.846 102.88C377.34 102.487 377.8 102.29 378.226 102.29C378.593 102.29 378.903 102.417 379.156 102.67C379.41 102.917 379.536 103.217 379.536 103.57C379.536 103.897 379.426 104.173 379.206 104.4C378.986 104.62 378.713 104.73 378.386 104.73C378.053 104.73 377.793 104.607 377.606 104.36C377.473 104.207 377.36 104.103 377.266 104.05C377.173 103.99 377.066 103.96 376.946 103.96C376.753 103.96 376.51 104.09 376.216 104.35C375.93 104.603 375.663 104.947 375.416 105.38ZM384.63 113.21C383.844 113.21 383.137 112.98 382.51 112.52C381.884 112.06 381.387 111.433 381.02 110.64C380.66 109.84 380.48 108.937 380.48 107.93C380.48 106.823 380.7 105.85 381.14 105.01C381.58 104.163 382.194 103.503 382.98 103.03C383.767 102.55 384.677 102.31 385.71 102.31C386.444 102.31 387.164 102.42 387.87 102.64V98.39L386.39 97.82V97.54L389.66 96.57H389.89V111.41L391.26 111.72V111.96L388.17 113.21H388.01V111.56L387.92 111.53C387.507 112.083 387.017 112.503 386.45 112.79C385.89 113.07 385.284 113.21 384.63 113.21ZM385.51 111.89C386.004 111.89 386.46 111.787 386.88 111.58C387.307 111.373 387.637 111.093 387.87 110.74V105.18C387.87 104.467 387.684 103.92 387.31 103.54C386.944 103.16 386.414 102.97 385.72 102.97C384.827 102.97 384.104 103.393 383.55 104.24C383.004 105.087 382.73 106.21 382.73 107.61C382.73 108.93 382.977 109.973 383.47 110.74C383.964 111.507 384.644 111.89 385.51 111.89ZM395.098 113.21C394.384 113.21 393.804 112.987 393.358 112.54C392.918 112.093 392.698 111.513 392.698 110.8C392.698 110.213 392.878 109.707 393.238 109.28C393.598 108.853 394.178 108.48 394.978 108.16C395.784 107.833 396.848 107.537 398.168 107.27V105.4C398.168 104.553 398.051 103.96 397.818 103.62C397.591 103.28 397.198 103.11 396.638 103.11C396.084 103.11 395.644 103.243 395.318 103.51C394.991 103.777 394.828 104.137 394.828 104.59C394.828 104.717 394.834 104.843 394.848 104.97C394.868 105.09 394.878 105.207 394.878 105.32C394.878 105.66 394.774 105.94 394.568 106.16C394.368 106.38 394.111 106.49 393.798 106.49C393.511 106.49 393.278 106.397 393.098 106.21C392.924 106.023 392.838 105.78 392.838 105.48C392.838 105.047 393.024 104.603 393.398 104.15C393.778 103.69 394.278 103.297 394.898 102.97C395.724 102.53 396.621 102.31 397.588 102.31C398.168 102.31 398.658 102.4 399.058 102.58C399.464 102.76 399.758 103.017 399.938 103.35C400.044 103.577 400.114 103.863 400.148 104.21C400.188 104.557 400.208 105.137 400.208 105.95V110.42C400.208 111.067 400.258 111.507 400.358 111.74C400.464 111.973 400.661 112.09 400.948 112.09C401.274 112.09 401.591 111.903 401.898 111.53L402.258 111.87C401.931 112.343 401.598 112.687 401.258 112.9C400.924 113.107 400.534 113.21 400.088 113.21C399.548 113.21 399.128 113.063 398.828 112.77C398.528 112.477 398.328 112.03 398.228 111.43H398.168C397.788 111.977 397.328 112.41 396.788 112.73C396.248 113.05 395.684 113.21 395.098 113.21ZM396.098 111.94C396.511 111.94 396.898 111.833 397.258 111.62C397.618 111.4 397.921 111.097 398.168 110.71V107.89C397.274 108.063 396.571 108.253 396.058 108.46C395.551 108.667 395.191 108.92 394.978 109.22C394.771 109.513 394.668 109.883 394.668 110.33C394.668 110.843 394.788 111.24 395.028 111.52C395.274 111.8 395.631 111.94 396.098 111.94ZM406.335 113.21C405.908 113.21 405.435 113.167 404.915 113.08C404.401 113 403.951 112.897 403.565 112.77L403.435 109.56H403.955C404.041 110.547 404.295 111.293 404.715 111.8C405.135 112.3 405.718 112.55 406.465 112.55C407.045 112.55 407.508 112.39 407.855 112.07C408.208 111.743 408.385 111.317 408.385 110.79C408.385 110.35 408.255 109.973 407.995 109.66C407.735 109.34 407.285 109.017 406.645 108.69L405.815 108.28C404.961 107.853 404.351 107.407 403.985 106.94C403.618 106.467 403.435 105.897 403.435 105.23C403.435 104.297 403.758 103.577 404.405 103.07C405.058 102.563 405.988 102.31 407.195 102.31C407.661 102.31 408.111 102.343 408.545 102.41C408.985 102.47 409.328 102.553 409.575 102.66V105.4H409.115C408.921 103.773 408.165 102.96 406.845 102.96C406.331 102.96 405.918 103.1 405.605 103.38C405.298 103.653 405.145 104.027 405.145 104.5C405.145 104.913 405.278 105.267 405.545 105.56C405.818 105.853 406.278 106.157 406.925 106.47L407.835 106.91C408.621 107.297 409.188 107.723 409.535 108.19C409.881 108.657 410.055 109.247 410.055 109.96C410.055 110.953 409.721 111.743 409.055 112.33C408.388 112.917 407.481 113.21 406.335 113.21ZM421.158 113.21C420.158 113.21 419.428 112.98 418.968 112.52C418.508 112.053 418.278 111.38 418.278 110.5V103.26L416.798 102.95V102.51H420.318V109.7C420.318 110.573 420.471 111.173 420.778 111.5C421.091 111.827 421.584 111.99 422.258 111.99C422.718 111.99 423.168 111.87 423.608 111.63C424.048 111.39 424.454 111.013 424.828 110.5V111.3C424.321 111.92 423.751 112.393 423.118 112.72C422.484 113.047 421.831 113.21 421.158 113.21ZM424.758 113.21V111.24L424.648 111.2V103.26L423.178 102.95V102.51H426.688V111.48L428.048 111.96V112.23L424.928 113.21H424.758ZM435.792 113V112.56L437.252 112.27V105.85C437.252 105.057 437.092 104.467 436.772 104.08C436.452 103.687 435.935 103.49 435.222 103.49C434.175 103.49 433.305 103.967 432.612 104.92V104.09C433.172 103.53 433.785 103.093 434.452 102.78C435.119 102.467 435.782 102.31 436.442 102.31C438.342 102.31 439.292 103.207 439.292 105V112.27L440.772 112.56V113H435.792ZM429.282 113V112.56L430.782 112.25V104.12L429.302 103.57V103.28L432.502 102.31H432.722V104.08L432.822 104.18V112.25L434.292 112.56V113H429.282ZM445.361 113.21C444.621 113.21 444.058 113 443.671 112.58C443.285 112.16 443.091 111.557 443.091 110.77V103.25H441.791L441.731 102.89L444.731 99.91L445.121 99.95V102.51H447.981L447.811 103.25H445.121V110.57C445.121 111.663 445.515 112.21 446.301 112.21C446.568 112.21 446.831 112.14 447.091 112C447.358 111.86 447.585 111.667 447.771 111.42L448.121 111.73C447.815 112.183 447.415 112.543 446.921 112.81C446.435 113.077 445.915 113.21 445.361 113.21ZM453.072 113.21C452.072 113.21 451.342 112.98 450.882 112.52C450.422 112.053 450.192 111.38 450.192 110.5V103.26L448.712 102.95V102.51H452.232V109.7C452.232 110.573 452.385 111.173 452.692 111.5C453.005 111.827 453.498 111.99 454.172 111.99C454.632 111.99 455.082 111.87 455.522 111.63C455.962 111.39 456.368 111.013 456.742 110.5V111.3C456.235 111.92 455.665 112.393 455.032 112.72C454.398 113.047 453.745 113.21 453.072 113.21ZM456.672 113.21V111.24L456.562 111.2V103.26L455.092 102.95V102.51H458.602V111.48L459.962 111.96V112.23L456.842 113.21H456.672ZM461.016 113V112.56L462.546 112.25V98.36L461.066 97.82V97.54L464.306 96.57H464.536V112.25L466.046 112.56V113H461.016ZM469.266 113L465.176 107.83L466.456 106.32L471.226 112.25L472.886 112.56V113H469.266ZM464.076 109.46L463.916 108.52L467.826 104.13C467.973 103.97 468.079 103.833 468.146 103.72C468.219 103.6 468.256 103.5 468.256 103.42C468.256 103.307 468.156 103.217 467.956 103.15C467.756 103.083 467.356 103.017 466.756 102.95V102.51H471.326V102.95C470.786 103.043 470.369 103.133 470.076 103.22C469.783 103.3 469.546 103.407 469.366 103.54C469.193 103.667 469.006 103.847 468.806 104.08L464.076 109.46ZM478.01 113V112.52L479.71 112.12V98.64L478.01 98.25V97.77H484.24C485.294 97.77 486.224 97.9467 487.03 98.3C487.837 98.6467 488.467 99.1567 488.92 99.83C489.374 100.497 489.6 101.317 489.6 102.29C489.6 103.65 489.094 104.69 488.08 105.41C487.067 106.13 485.684 106.49 483.93 106.49H481.96V112.12L484.24 112.52V113H478.01ZM481.96 105.69H483.27C484.07 105.69 484.707 105.6 485.18 105.42C485.66 105.233 486.044 104.977 486.33 104.65C486.63 104.31 486.837 103.923 486.95 103.49C487.07 103.05 487.13 102.587 487.13 102.1C487.13 101.28 486.984 100.597 486.69 100.05C486.397 99.5033 485.984 99.1133 485.45 98.88C485.044 98.68 484.43 98.58 483.61 98.58H481.96V105.69ZM490.893 113V112.56L492.393 112.25V104.1L490.933 103.55V103.26L494.133 102.3H494.353V104.46L494.433 104.56V112.25L496.493 112.56V113H490.893ZM494.283 105.38L494.243 104.56C494.737 103.833 495.227 103.273 495.713 102.88C496.207 102.487 496.667 102.29 497.093 102.29C497.46 102.29 497.77 102.417 498.023 102.67C498.277 102.917 498.403 103.217 498.403 103.57C498.403 103.897 498.293 104.173 498.073 104.4C497.853 104.62 497.58 104.73 497.253 104.73C496.92 104.73 496.66 104.607 496.473 104.36C496.34 104.207 496.227 104.103 496.133 104.05C496.04 103.99 495.933 103.96 495.813 103.96C495.62 103.96 495.377 104.09 495.083 104.35C494.797 104.603 494.53 104.947 494.283 105.38ZM504.568 113.21C503.541 113.21 502.631 112.973 501.838 112.5C501.044 112.02 500.421 111.37 499.968 110.55C499.521 109.723 499.298 108.793 499.298 107.76C499.298 106.72 499.521 105.79 499.968 104.97C500.421 104.15 501.044 103.503 501.838 103.03C502.631 102.55 503.541 102.31 504.568 102.31C505.594 102.31 506.501 102.55 507.288 103.03C508.081 103.503 508.704 104.15 509.158 104.97C509.611 105.79 509.838 106.72 509.838 107.76C509.838 108.793 509.611 109.723 509.158 110.55C508.704 111.37 508.081 112.02 507.288 112.5C506.501 112.973 505.594 113.21 504.568 113.21ZM504.548 112.29C505.034 112.29 505.464 112.183 505.838 111.97C506.211 111.75 506.524 111.44 506.778 111.04C507.038 110.633 507.234 110.153 507.368 109.6C507.501 109.04 507.568 108.42 507.568 107.74C507.568 107.067 507.501 106.453 507.368 105.9C507.241 105.347 507.051 104.87 506.798 104.47C506.544 104.07 506.231 103.763 505.858 103.55C505.484 103.33 505.054 103.22 504.568 103.22C504.081 103.22 503.651 103.33 503.278 103.55C502.904 103.763 502.591 104.07 502.338 104.47C502.084 104.87 501.891 105.35 501.758 105.91C501.631 106.463 501.568 107.08 501.568 107.76C501.568 108.44 501.631 109.057 501.758 109.61C501.891 110.163 502.084 110.64 502.338 111.04C502.591 111.44 502.901 111.75 503.268 111.97C503.641 112.183 504.068 112.29 504.548 112.29ZM515.763 113.21C514.976 113.21 514.27 112.98 513.643 112.52C513.016 112.06 512.52 111.433 512.153 110.64C511.793 109.84 511.613 108.937 511.613 107.93C511.613 106.823 511.833 105.85 512.273 105.01C512.713 104.163 513.326 103.503 514.113 103.03C514.9 102.55 515.81 102.31 516.843 102.31C517.576 102.31 518.296 102.42 519.003 102.64V98.39L517.523 97.82V97.54L520.793 96.57H521.023V111.41L522.393 111.72V111.96L519.303 113.21H519.143V111.56L519.053 111.53C518.64 112.083 518.15 112.503 517.583 112.79C517.023 113.07 516.416 113.21 515.763 113.21ZM516.643 111.89C517.136 111.89 517.593 111.787 518.013 111.58C518.44 111.373 518.77 111.093 519.003 110.74V105.18C519.003 104.467 518.816 103.92 518.443 103.54C518.076 103.16 517.546 102.97 516.853 102.97C515.96 102.97 515.236 103.393 514.683 104.24C514.136 105.087 513.863 106.21 513.863 107.61C513.863 108.93 514.11 109.973 514.603 110.74C515.096 111.507 515.776 111.89 516.643 111.89ZM527.701 113.21C526.701 113.21 525.971 112.98 525.511 112.52C525.051 112.053 524.821 111.38 524.821 110.5V103.26L523.341 102.95V102.51H526.861V109.7C526.861 110.573 527.014 111.173 527.321 111.5C527.634 111.827 528.127 111.99 528.801 111.99C529.261 111.99 529.711 111.87 530.151 111.63C530.591 111.39 530.997 111.013 531.371 110.5V111.3C530.864 111.92 530.294 112.393 529.661 112.72C529.027 113.047 528.374 113.21 527.701 113.21ZM531.301 113.21V111.24L531.191 111.2V103.26L529.721 102.95V102.51H533.231V111.48L534.591 111.96V112.23L531.471 113.21H531.301ZM535.645 113V112.56L537.175 112.25V98.36L535.695 97.82V97.54L538.935 96.57H539.165V112.25L540.675 112.56V113H535.645ZM543.895 113L539.805 107.83L541.085 106.32L545.855 112.25L547.515 112.56V113H543.895ZM538.705 109.46L538.545 108.52L542.455 104.13C542.602 103.97 542.708 103.833 542.775 103.72C542.848 103.6 542.885 103.5 542.885 103.42C542.885 103.307 542.785 103.217 542.585 103.15C542.385 103.083 541.985 103.017 541.385 102.95V102.51H545.955V102.95C545.415 103.043 544.998 103.133 544.705 103.22C544.412 103.3 544.175 103.407 543.995 103.54C543.822 103.667 543.635 103.847 543.435 104.08L538.705 109.46ZM550.83 113.21C550.09 113.21 549.527 113 549.14 112.58C548.753 112.16 548.56 111.557 548.56 110.77V103.25H547.26L547.2 102.89L550.2 99.91L550.59 99.95V102.51H553.45L553.28 103.25H550.59V110.57C550.59 111.663 550.983 112.21 551.77 112.21C552.037 112.21 552.3 112.14 552.56 112C552.827 111.86 553.053 111.667 553.24 111.42L553.59 111.73C553.283 112.183 552.883 112.543 552.39 112.81C551.903 113.077 551.383 113.21 550.83 113.21ZM554.33 113V112.56L555.85 112.25V104.1L554.36 103.57V103.26L557.68 102.31H557.9V112.25L559.4 112.56V113H554.33ZM556.86 100.21C556.454 100.21 556.13 100.08 555.89 99.82C555.65 99.56 555.53 99.2567 555.53 98.91C555.53 98.53 555.65 98.21 555.89 97.95C556.13 97.69 556.454 97.56 556.86 97.56C557.274 97.56 557.6 97.69 557.84 97.95C558.087 98.21 558.21 98.53 558.21 98.91C558.21 99.2567 558.087 99.56 557.84 99.82C557.6 100.08 557.274 100.21 556.86 100.21ZM564.539 113.21L560.919 103.8C560.799 103.487 560.653 103.277 560.479 103.17C560.306 103.057 559.969 102.983 559.469 102.95V102.51H564.619V102.95C564.053 102.97 563.679 103.02 563.499 103.1C563.319 103.173 563.229 103.29 563.229 103.45C563.229 103.603 563.269 103.79 563.349 104.01L565.609 110.42H565.689L567.799 104.44C567.919 104.1 567.979 103.84 567.979 103.66C567.979 103.467 567.893 103.323 567.719 103.23C567.546 103.13 567.166 103.037 566.579 102.95V102.51H570.679V102.95C570.186 103.03 569.813 103.127 569.559 103.24C569.306 103.347 569.116 103.497 568.989 103.69C568.869 103.883 568.749 104.143 568.629 104.47L565.489 113.21H564.539ZM571.03 113V112.56L572.55 112.25V104.1L571.06 103.57V103.26L574.38 102.31H574.6V112.25L576.1 112.56V113H571.03ZM573.56 100.21C573.153 100.21 572.83 100.08 572.59 99.82C572.35 99.56 572.23 99.2567 572.23 98.91C572.23 98.53 572.35 98.21 572.59 97.95C572.83 97.69 573.153 97.56 573.56 97.56C573.973 97.56 574.3 97.69 574.54 97.95C574.786 98.21 574.91 98.53 574.91 98.91C574.91 99.2567 574.786 99.56 574.54 99.82C574.3 100.08 573.973 100.21 573.56 100.21ZM580.693 113.21C579.953 113.21 579.39 113 579.003 112.58C578.617 112.16 578.423 111.557 578.423 110.77V103.25H577.123L577.063 102.89L580.063 99.91L580.453 99.95V102.51H583.313L583.143 103.25H580.453V110.57C580.453 111.663 580.847 112.21 581.633 112.21C581.9 112.21 582.163 112.14 582.423 112C582.69 111.86 582.917 111.667 583.103 111.42L583.453 111.73C583.147 112.183 582.747 112.543 582.253 112.81C581.767 113.077 581.247 113.21 580.693 113.21ZM586.934 113.21C586.22 113.21 585.64 112.987 585.194 112.54C584.754 112.093 584.534 111.513 584.534 110.8C584.534 110.213 584.714 109.707 585.074 109.28C585.434 108.853 586.014 108.48 586.814 108.16C587.62 107.833 588.684 107.537 590.004 107.27V105.4C590.004 104.553 589.887 103.96 589.654 103.62C589.427 103.28 589.034 103.11 588.474 103.11C587.92 103.11 587.48 103.243 587.154 103.51C586.827 103.777 586.664 104.137 586.664 104.59C586.664 104.717 586.67 104.843 586.684 104.97C586.704 105.09 586.714 105.207 586.714 105.32C586.714 105.66 586.61 105.94 586.404 106.16C586.204 106.38 585.947 106.49 585.634 106.49C585.347 106.49 585.114 106.397 584.934 106.21C584.76 106.023 584.674 105.78 584.674 105.48C584.674 105.047 584.86 104.603 585.234 104.15C585.614 103.69 586.114 103.297 586.734 102.97C587.56 102.53 588.457 102.31 589.424 102.31C590.004 102.31 590.494 102.4 590.894 102.58C591.3 102.76 591.594 103.017 591.774 103.35C591.88 103.577 591.95 103.863 591.984 104.21C592.024 104.557 592.044 105.137 592.044 105.95V110.42C592.044 111.067 592.094 111.507 592.194 111.74C592.3 111.973 592.497 112.09 592.784 112.09C593.11 112.09 593.427 111.903 593.734 111.53L594.094 111.87C593.767 112.343 593.434 112.687 593.094 112.9C592.76 113.107 592.37 113.21 591.924 113.21C591.384 113.21 590.964 113.063 590.664 112.77C590.364 112.477 590.164 112.03 590.064 111.43H590.004C589.624 111.977 589.164 112.41 588.624 112.73C588.084 113.05 587.52 113.21 586.934 113.21ZM587.934 111.94C588.347 111.94 588.734 111.833 589.094 111.62C589.454 111.4 589.757 111.097 590.004 110.71V107.89C589.11 108.063 588.407 108.253 587.894 108.46C587.387 108.667 587.027 108.92 586.814 109.22C586.607 109.513 586.504 109.883 586.504 110.33C586.504 110.843 586.624 111.24 586.864 111.52C587.11 111.8 587.467 111.94 587.934 111.94ZM598.171 113.21C597.744 113.21 597.271 113.167 596.751 113.08C596.237 113 595.787 112.897 595.401 112.77L595.271 109.56H595.791C595.877 110.547 596.131 111.293 596.551 111.8C596.971 112.3 597.554 112.55 598.301 112.55C598.881 112.55 599.344 112.39 599.691 112.07C600.044 111.743 600.221 111.317 600.221 110.79C600.221 110.35 600.091 109.973 599.831 109.66C599.571 109.34 599.121 109.017 598.481 108.69L597.651 108.28C596.797 107.853 596.187 107.407 595.821 106.94C595.454 106.467 595.271 105.897 595.271 105.23C595.271 104.297 595.594 103.577 596.241 103.07C596.894 102.563 597.824 102.31 599.031 102.31C599.497 102.31 599.947 102.343 600.381 102.41C600.821 102.47 601.164 102.553 601.411 102.66V105.4H600.951C600.757 103.773 600.001 102.96 598.681 102.96C598.167 102.96 597.754 103.1 597.441 103.38C597.134 103.653 596.981 104.027 596.981 104.5C596.981 104.913 597.114 105.267 597.381 105.56C597.654 105.853 598.114 106.157 598.761 106.47L599.671 106.91C600.457 107.297 601.024 107.723 601.371 108.19C601.717 108.657 601.891 109.247 601.891 109.96C601.891 110.953 601.557 111.743 600.891 112.33C600.224 112.917 599.317 113.21 598.171 113.21ZM611.846 113V112.52L614.056 112.12V98.59H610.176C609.75 99.1567 609.386 99.75 609.086 100.37C608.793 100.99 608.55 101.58 608.356 102.14H607.836L608.566 97.77H621.726L622.456 102.14H621.946C621.753 101.58 621.506 100.99 621.206 100.37C620.913 99.75 620.553 99.1567 620.126 98.59H616.306V112.12L618.476 112.52V113H611.846ZM622.944 113V112.56L624.464 112.25V104.1L622.974 103.57V103.26L626.294 102.31H626.514V112.25L628.014 112.56V113H622.944ZM625.474 100.21C625.067 100.21 624.744 100.08 624.504 99.82C624.264 99.56 624.144 99.2567 624.144 98.91C624.144 98.53 624.264 98.21 624.504 97.95C624.744 97.69 625.067 97.56 625.474 97.56C625.887 97.56 626.214 97.69 626.454 97.95C626.7 98.21 626.824 98.53 626.824 98.91C626.824 99.2567 626.7 99.56 626.454 99.82C626.214 100.08 625.887 100.21 625.474 100.21ZM629.048 113V112.56L630.538 112.25V104.12L629.068 103.57V103.28L632.228 102.31H632.488V104.04L632.588 104.14V112.25L634.058 112.56V113H629.048ZM635.368 113V112.56L636.848 112.27V106.16C636.848 105.213 636.698 104.533 636.398 104.12C636.104 103.7 635.631 103.49 634.978 103.49C634.471 103.49 633.988 103.617 633.528 103.87C633.074 104.117 632.678 104.473 632.338 104.94V104.1C632.898 103.533 633.514 103.093 634.188 102.78C634.868 102.467 635.534 102.31 636.188 102.31C637.101 102.31 637.778 102.55 638.218 103.03C638.658 103.503 638.878 104.243 638.878 105.25V112.27L640.358 112.56V113H635.368ZM641.668 113V112.56L643.138 112.27V106.1C643.138 105.153 642.994 104.483 642.708 104.09C642.428 103.69 641.951 103.49 641.278 103.49C640.738 103.49 640.244 103.617 639.798 103.87C639.358 104.117 638.971 104.473 638.638 104.94V104.1C639.151 103.507 639.754 103.06 640.448 102.76C641.141 102.46 641.841 102.31 642.548 102.31C643.441 102.31 644.094 102.553 644.508 103.04C644.921 103.527 645.141 104.293 645.168 105.34V112.27L646.648 112.56V113H641.668ZM661.483 113.21L655.983 100.03H655.903V112.12L657.673 112.52V113H653.263V112.52L655.043 112.12V98.63L653.263 98.25V97.77H657.673L662.483 109.29H662.583L667.423 97.77H671.693V98.25L669.943 98.63V112.12L671.693 112.52V113H665.913V112.52L667.683 112.12V100.17H667.603L662.083 113.21H661.483ZM675.762 113.21C675.049 113.21 674.469 112.987 674.022 112.54C673.582 112.093 673.362 111.513 673.362 110.8C673.362 110.213 673.542 109.707 673.902 109.28C674.262 108.853 674.842 108.48 675.642 108.16C676.449 107.833 677.512 107.537 678.832 107.27V105.4C678.832 104.553 678.715 103.96 678.482 103.62C678.255 103.28 677.862 103.11 677.302 103.11C676.749 103.11 676.309 103.243 675.982 103.51C675.655 103.777 675.492 104.137 675.492 104.59C675.492 104.717 675.499 104.843 675.512 104.97C675.532 105.09 675.542 105.207 675.542 105.32C675.542 105.66 675.439 105.94 675.232 106.16C675.032 106.38 674.775 106.49 674.462 106.49C674.175 106.49 673.942 106.397 673.762 106.21C673.589 106.023 673.502 105.78 673.502 105.48C673.502 105.047 673.689 104.603 674.062 104.15C674.442 103.69 674.942 103.297 675.562 102.97C676.389 102.53 677.285 102.31 678.252 102.31C678.832 102.31 679.322 102.4 679.722 102.58C680.129 102.76 680.422 103.017 680.602 103.35C680.709 103.577 680.779 103.863 680.812 104.21C680.852 104.557 680.872 105.137 680.872 105.95V110.42C680.872 111.067 680.922 111.507 681.022 111.74C681.129 111.973 681.325 112.09 681.612 112.09C681.939 112.09 682.255 111.903 682.562 111.53L682.922 111.87C682.595 112.343 682.262 112.687 681.922 112.9C681.589 113.107 681.199 113.21 680.752 113.21C680.212 113.21 679.792 113.063 679.492 112.77C679.192 112.477 678.992 112.03 678.892 111.43H678.832C678.452 111.977 677.992 112.41 677.452 112.73C676.912 113.05 676.349 113.21 675.762 113.21ZM676.762 111.94C677.175 111.94 677.562 111.833 677.922 111.62C678.282 111.4 678.585 111.097 678.832 110.71V107.89C677.939 108.063 677.235 108.253 676.722 108.46C676.215 108.667 675.855 108.92 675.642 109.22C675.435 109.513 675.332 109.883 675.332 110.33C675.332 110.843 675.452 111.24 675.692 111.52C675.939 111.8 676.295 111.94 676.762 111.94ZM683.409 113V112.56L684.919 112.25V98.36L683.439 97.82V97.52L686.719 96.57H686.949V112.25L688.419 112.56V113H683.409ZM690.089 113V112.56L691.549 112.27V105.85C691.549 105.057 691.389 104.467 691.069 104.08C690.749 103.687 690.232 103.49 689.519 103.49C689.012 103.49 688.529 103.61 688.069 103.85C687.609 104.09 687.175 104.423 686.769 104.85V104.04C687.382 103.473 688.032 103.043 688.719 102.75C689.405 102.457 690.079 102.31 690.739 102.31C692.639 102.31 693.589 103.207 693.589 105V112.27L695.069 112.56V113H690.089ZM698.828 113.21C698.115 113.21 697.535 112.987 697.088 112.54C696.648 112.093 696.428 111.513 696.428 110.8C696.428 110.213 696.608 109.707 696.968 109.28C697.328 108.853 697.908 108.48 698.708 108.16C699.515 107.833 700.578 107.537 701.898 107.27V105.4C701.898 104.553 701.782 103.96 701.548 103.62C701.322 103.28 700.928 103.11 700.368 103.11C699.815 103.11 699.375 103.243 699.048 103.51C698.722 103.777 698.558 104.137 698.558 104.59C698.558 104.717 698.565 104.843 698.578 104.97C698.598 105.09 698.608 105.207 698.608 105.32C698.608 105.66 698.505 105.94 698.298 106.16C698.098 106.38 697.842 106.49 697.528 106.49C697.242 106.49 697.008 106.397 696.828 106.21C696.655 106.023 696.568 105.78 696.568 105.48C696.568 105.047 696.755 104.603 697.128 104.15C697.508 103.69 698.008 103.297 698.628 102.97C699.455 102.53 700.352 102.31 701.318 102.31C701.898 102.31 702.388 102.4 702.788 102.58C703.195 102.76 703.488 103.017 703.668 103.35C703.775 103.577 703.845 103.863 703.878 104.21C703.918 104.557 703.938 105.137 703.938 105.95V110.42C703.938 111.067 703.988 111.507 704.088 111.74C704.195 111.973 704.392 112.09 704.678 112.09C705.005 112.09 705.322 111.903 705.628 111.53L705.988 111.87C705.662 112.343 705.328 112.687 704.988 112.9C704.655 113.107 704.265 113.21 703.818 113.21C703.278 113.21 702.858 113.063 702.558 112.77C702.258 112.477 702.058 112.03 701.958 111.43H701.898C701.518 111.977 701.058 112.41 700.518 112.73C699.978 113.05 699.415 113.21 698.828 113.21ZM699.828 111.94C700.242 111.94 700.628 111.833 700.988 111.62C701.348 111.4 701.652 111.097 701.898 110.71V107.89C701.005 108.063 700.302 108.253 699.788 108.46C699.282 108.667 698.922 108.92 698.708 109.22C698.502 109.513 698.398 109.883 698.398 110.33C698.398 110.843 698.518 111.24 698.758 111.52C699.005 111.8 699.362 111.94 699.828 111.94ZM710.065 113.21C709.638 113.21 709.165 113.167 708.645 113.08C708.132 113 707.682 112.897 707.295 112.77L707.165 109.56H707.685C707.772 110.547 708.025 111.293 708.445 111.8C708.865 112.3 709.448 112.55 710.195 112.55C710.775 112.55 711.238 112.39 711.585 112.07C711.938 111.743 712.115 111.317 712.115 110.79C712.115 110.35 711.985 109.973 711.725 109.66C711.465 109.34 711.015 109.017 710.375 108.69L709.545 108.28C708.692 107.853 708.082 107.407 707.715 106.94C707.348 106.467 707.165 105.897 707.165 105.23C707.165 104.297 707.488 103.577 708.135 103.07C708.788 102.563 709.718 102.31 710.925 102.31C711.392 102.31 711.842 102.343 712.275 102.41C712.715 102.47 713.058 102.553 713.305 102.66V105.4H712.845C712.652 103.773 711.895 102.96 710.575 102.96C710.062 102.96 709.648 103.1 709.335 103.38C709.028 103.653 708.875 104.027 708.875 104.5C708.875 104.913 709.008 105.267 709.275 105.56C709.548 105.853 710.008 106.157 710.655 106.47L711.565 106.91C712.352 107.297 712.918 107.723 713.265 108.19C713.612 108.657 713.785 109.247 713.785 109.96C713.785 110.953 713.452 111.743 712.785 112.33C712.118 112.917 711.212 113.21 710.065 113.21ZM715.346 113V112.56L716.866 112.25V104.1L715.376 103.57V103.26L718.696 102.31H718.916V112.25L720.416 112.56V113H715.346ZM717.876 100.21C717.469 100.21 717.146 100.08 716.906 99.82C716.666 99.56 716.546 99.2567 716.546 98.91C716.546 98.53 716.666 98.21 716.906 97.95C717.146 97.69 717.469 97.56 717.876 97.56C718.289 97.56 718.616 97.69 718.856 97.95C719.103 98.21 719.226 98.53 719.226 98.91C719.226 99.2567 719.103 99.56 718.856 99.82C718.616 100.08 718.289 100.21 717.876 100.21ZM724.87 113.21C724.443 113.21 723.97 113.167 723.45 113.08C722.937 113 722.487 112.897 722.1 112.77L721.97 109.56H722.49C722.577 110.547 722.83 111.293 723.25 111.8C723.67 112.3 724.253 112.55 725 112.55C725.58 112.55 726.043 112.39 726.39 112.07C726.743 111.743 726.92 111.317 726.92 110.79C726.92 110.35 726.79 109.973 726.53 109.66C726.27 109.34 725.82 109.017 725.18 108.69L724.35 108.28C723.497 107.853 722.887 107.407 722.52 106.94C722.153 106.467 721.97 105.897 721.97 105.23C721.97 104.297 722.293 103.577 722.94 103.07C723.593 102.563 724.523 102.31 725.73 102.31C726.197 102.31 726.647 102.343 727.08 102.41C727.52 102.47 727.863 102.553 728.11 102.66V105.4H727.65C727.457 103.773 726.7 102.96 725.38 102.96C724.867 102.96 724.453 103.1 724.14 103.38C723.833 103.653 723.68 104.027 723.68 104.5C723.68 104.913 723.813 105.267 724.08 105.56C724.353 105.853 724.813 106.157 725.46 106.47L726.37 106.91C727.157 107.297 727.723 107.723 728.07 108.19C728.417 108.657 728.59 109.247 728.59 109.96C728.59 110.953 728.257 111.743 727.59 112.33C726.923 112.917 726.017 113.21 724.87 113.21ZM740.114 113.21L736.994 103.8C736.907 103.487 736.767 103.277 736.574 103.17C736.387 103.057 736.104 102.983 735.724 102.95V102.51H740.524V102.95C739.837 102.997 739.421 103.08 739.274 103.2C739.127 103.32 739.117 103.59 739.244 104.01L741.194 110.42H741.274L743.354 104.44C743.414 104.287 743.457 104.147 743.484 104.02C743.517 103.893 743.534 103.78 743.534 103.68C743.534 103.473 743.434 103.32 743.234 103.22C743.034 103.113 742.664 103.023 742.124 102.95V102.51H746.234V102.95C745.734 103.03 745.357 103.127 745.104 103.24C744.851 103.353 744.661 103.507 744.534 103.7C744.414 103.887 744.294 104.143 744.174 104.47L741.094 113.21H740.114ZM734.024 113.21L730.724 103.8C730.617 103.487 730.474 103.277 730.294 103.17C730.114 103.057 729.774 102.983 729.274 102.95V102.51H734.424V102.95C733.964 102.977 733.627 103.02 733.414 103.08C733.207 103.133 733.091 103.23 733.064 103.37C733.044 103.51 733.074 103.723 733.154 104.01L735.104 110.42H735.174L737.384 104.29L738.204 104.33L734.974 113.21H734.024ZM748.75 113.21C748.037 113.21 747.457 112.987 747.01 112.54C746.57 112.093 746.35 111.513 746.35 110.8C746.35 110.213 746.53 109.707 746.89 109.28C747.25 108.853 747.83 108.48 748.63 108.16C749.437 107.833 750.5 107.537 751.82 107.27V105.4C751.82 104.553 751.703 103.96 751.47 103.62C751.243 103.28 750.85 103.11 750.29 103.11C749.737 103.11 749.297 103.243 748.97 103.51C748.643 103.777 748.48 104.137 748.48 104.59C748.48 104.717 748.487 104.843 748.5 104.97C748.52 105.09 748.53 105.207 748.53 105.32C748.53 105.66 748.427 105.94 748.22 106.16C748.02 106.38 747.763 106.49 747.45 106.49C747.163 106.49 746.93 106.397 746.75 106.21C746.577 106.023 746.49 105.78 746.49 105.48C746.49 105.047 746.677 104.603 747.05 104.15C747.43 103.69 747.93 103.297 748.55 102.97C749.377 102.53 750.273 102.31 751.24 102.31C751.82 102.31 752.31 102.4 752.71 102.58C753.117 102.76 753.41 103.017 753.59 103.35C753.697 103.577 753.767 103.863 753.8 104.21C753.84 104.557 753.86 105.137 753.86 105.95V110.42C753.86 111.067 753.91 111.507 754.01 111.74C754.117 111.973 754.313 112.09 754.6 112.09C754.927 112.09 755.243 111.903 755.55 111.53L755.91 111.87C755.583 112.343 755.25 112.687 754.91 112.9C754.577 113.107 754.187 113.21 753.74 113.21C753.2 113.21 752.78 113.063 752.48 112.77C752.18 112.477 751.98 112.03 751.88 111.43H751.82C751.44 111.977 750.98 112.41 750.44 112.73C749.9 113.05 749.337 113.21 748.75 113.21ZM749.75 111.94C750.163 111.94 750.55 111.833 750.91 111.62C751.27 111.4 751.573 111.097 751.82 110.71V107.89C750.927 108.063 750.223 108.253 749.71 108.46C749.203 108.667 748.843 108.92 748.63 109.22C748.423 109.513 748.32 109.883 748.32 110.33C748.32 110.843 748.44 111.24 748.68 111.52C748.927 111.8 749.283 111.94 749.75 111.94Z" fill="white"/>
</g>
<defs>
<clipPath id="clip0_165_67">
<rect width="863" height="175" fill="white"/>
</clipPath>
<clipPath id="clip1_165_67">
<rect y="31" width="113" height="113" rx="56.5" fill="white"/>
</clipPath>
</defs>
</svg>
