<svg width="113" height="113" viewBox="0 0 113 113" fill="none" xmlns="http://www.w3.org/2000/svg">
<g clip-path="url(#clip0_165_10)">
<path d="M124.3 -11.3H-11.3V124.3H124.3V-11.3Z" fill="#D9D9D9"/>
<path d="M124.3 -11.3H-11.3V124.3H124.3V-11.3Z" fill="#D9D9D9"/>
<mask id="mask0_165_10" style="mask-type:luminance" maskUnits="userSpaceOnUse" x="-12" y="-12" width="137" height="137">
<path d="M124.3 -11.3H-11.3V124.3H124.3V-11.3Z" fill="black" fill-opacity="0.42"/>
</mask>
<g mask="url(#mask0_165_10)">
<mask id="mask1_165_10" style="mask-type:luminance" maskUnits="userSpaceOnUse" x="7" y="11" width="100" height="91">
<path d="M106.069 11.752H7.23193V101.248H106.069V11.752Z" fill="white"/>
</mask>
<g mask="url(#mask1_165_10)">
<path d="M83.2244 92.1878C77.957 96.2052 72.4706 99.7176 65.5352 100.157C52.4343 100.991 39.7265 99.7836 27.9192 93.4826C21.7524 90.1903 16.5297 85.6668 12.0744 80.3546C8.10178 75.6345 7.31196 69.8174 8.14651 63.8896C9.26474 56.0961 12.2722 48.9394 16.0247 42.0676C19.6678 35.3712 24.5186 29.62 30.0709 24.4173C40.8247 14.3402 53.3559 11.9472 67.2479 16.0741C77.9793 19.2793 87.0217 25.2506 94.7469 33.3513C102.318 41.3214 105.588 57.9394 97.6437 69.004C94.329 73.5934 91.0379 77.984 86.0341 80.816C84.8052 81.5176 83.707 82.4404 82.5876 83.3397C80.1746 85.2937 77.4967 86.7215 74.4905 87.5337C72.4706 88.0598 70.5178 88.7625 68.5427 89.4217C57.3062 93.1978 46.3111 92.2749 35.5573 87.5996C26.3171 83.5822 20.3705 76.6445 17.9116 66.8747C16.7486 62.2864 17.6927 57.6769 18.7026 53.2193C22.2138 37.8525 32.5063 29.0055 47.2327 25.0317C54.7826 22.9895 62.5513 22.5069 70.3424 24.2407C74.753 25.2294 78.5279 27.2481 81.2928 30.9583C84.5628 35.3276 88.0528 39.5651 91.1474 44.0428C95.4049 50.2119 94.3737 56.8424 91.8489 63.2304C87.3725 74.5363 78.6597 80.9914 67.1384 84.4603C56.5376 87.6431 46.5524 86.2824 36.8744 81.6494C31.1903 78.928 27.5908 74.3174 27.0858 67.841C26.7786 63.8237 26.4937 59.7404 26.8221 55.7442C27.4366 48.478 30.8607 42.6161 36.9615 38.4893C42.2501 34.911 47.8472 31.9023 53.9916 30.1026C61.2341 27.9732 68.1036 28.9832 74.2927 33.4172C76.5963 35.064 78.748 36.952 80.8102 38.906C82.0615 40.0913 83.115 41.5403 84.0802 42.9893C88.2506 49.2019 87.6573 55.5688 83.7294 61.4742C77.8039 70.3871 69.4643 75.8323 58.6881 77.2377C53.5089 77.9181 48.6146 76.9081 44.0499 74.5587C39.5299 72.2539 36.4789 68.6309 35.4913 63.5376C34.0212 56.0302 35.6667 49.2678 40.3409 43.1647C46.2887 35.3712 60.9928 32.8464 69.9693 40.3985C76.2455 45.6683 76.9918 54.8225 71.4171 60.8598C67.5327 65.0749 62.7267 67.4244 57.0202 67.907C49.1855 68.5873 44.8845 63.3187 42.9529 58.7304C42.163 56.8424 42.2066 54.8884 43.0623 52.978C44.9716 48.697 48.0226 45.4918 52.193 43.4507C55.9008 41.6498 59.6981 42.1995 63.2752 43.9557C65.6235 45.0974 66.3262 46.8089 65.9083 49.3997C65.0526 54.713 60.2901 58.555 54.9132 58.2478C51.841 58.0713 50.3049 56.3374 50.5898 53.3076C50.8323 50.5414 53.7067 47.2703 56.3846 46.8972C60.9928 46.2392 59.0177 47.3139 57.5475 48.3026C56.1209 49.2678 54.4965 50.1459 53.5089 51.4631C52.8721 52.32 52.8074 54.0103 53.1582 55.1297C53.5972 56.5563 55.1557 56.1397 56.3186 56.0078C59.8522 55.6347 62.7926 52.825 63.5389 49.2902C63.8673 47.7753 63.3411 46.7218 61.9581 46.085C58.3597 44.4606 54.7826 44.1087 51.3808 46.5676C48.8571 48.3897 46.7501 50.6297 45.6307 53.5713C45.1917 54.7342 45.0163 56.1832 45.2788 57.3697C46.2228 61.3424 50.5027 64.7677 54.5401 65.0749C62.5513 65.6681 70.0564 60.3772 72.1198 52.6272C73.1945 48.6534 71.5266 45.5141 68.784 42.9022C61.3001 35.7443 50.7216 37.457 45.2788 42.0453C38.8931 47.4022 36.5884 54.4494 38.2128 62.7043C39.1344 67.3361 42.1195 70.2117 46.3111 71.9243C50.9853 73.8348 55.7913 74.2514 60.7951 73.1756C68.6086 71.4853 75.1708 67.841 79.9109 61.3647C81.6224 59.0153 82.8077 56.2491 83.9483 53.5489C84.3874 52.539 84.2344 51.1782 84.0142 50.0141C83.2468 45.9308 81.5129 42.3313 78.2866 39.5651C77.2107 38.6423 76.2019 37.6112 75.1485 36.6672C68.7616 30.9583 61.4095 29.5752 53.4654 32.4297C49.1643 33.9669 44.9939 36.0515 41.0213 38.3351C31.6505 43.7144 27.9639 52.0787 28.995 62.6819C29.0833 63.6695 29.3246 64.6358 29.4564 65.6022C30.7289 74.0761 36.3247 78.3124 43.984 80.7054C52.4555 83.3621 60.7951 83.0325 69.1795 80.3546C76.2231 78.0934 81.6883 73.8559 86.0341 67.907C89.1063 63.7142 90.7519 59.0376 91.0815 53.922C91.1909 52.2317 91.0591 50.3661 90.4446 48.8288C89.523 46.5017 88.3377 44.197 86.8239 42.2206C83.8612 38.2915 80.7443 34.4719 77.4084 30.8488C76.136 29.4658 74.248 28.4123 72.427 27.8414C62.1346 24.5044 51.6433 24.7245 41.877 29.0055C29.8296 34.2953 22.5211 43.6261 20.5235 57.2155C18.7026 69.6408 27.1953 80.5088 35.6667 84.1083C43.326 87.3583 51.0736 89.7725 59.5439 88.7413C60.3125 88.6531 61.0811 88.6531 61.8274 88.5212C76.289 85.6456 88.2058 78.7962 96.4807 66.2826C97.0728 65.3821 97.6437 64.3722 97.8626 63.3411C98.5865 59.9157 99.1798 56.4692 99.7507 53.0004C99.8813 52.1446 99.9261 51.2218 99.7283 50.3884C98.3676 44.6137 96.6997 39.0154 92.4645 34.4719C84.2555 25.6897 74.0726 20.3775 62.5725 17.6114C54.1458 15.5691 45.9591 16.9969 38.6071 21.6947C29.8508 27.2705 22.9601 34.6473 18.3295 44.0216C15.4103 49.927 12.6006 55.876 11.3941 62.4182C10.0769 69.5973 11.5259 75.8546 16.8805 81.3869C25.6156 90.3869 36.1493 95.1729 48.2415 96.5348C54.1893 97.1928 60.2466 96.8856 66.2603 96.7973C70.8686 96.7326 75.0166 95.1294 78.7692 92.3856C79.6908 91.7041 80.6125 90.9366 81.7319 90.5187C83.9707 89.6406 85.6386 90.3657 83.2244 92.1878Z" fill="#21A0CC"/>
</g>
</g>
<mask id="mask2_165_10" style="mask-type:luminance" maskUnits="userSpaceOnUse" x="62" y="63" width="27" height="39">
<path d="M62.9786 63.28H88.8933V101.7H62.9786V63.28Z" fill="white"/>
</mask>
<g mask="url(#mask2_165_10)">
<path fill-rule="evenodd" clip-rule="evenodd" d="M69.6256 93.4252C69.6256 95.1673 69.6786 96.9105 69.6103 98.6503C69.5362 100.555 68.372 101.669 66.5711 101.712C64.7913 101.752 63.3706 100.67 63.3329 98.8339C63.2293 93.7359 63.2352 88.6321 63.327 83.5342C63.3588 81.8097 64.7596 80.6939 66.6064 80.648C68.9076 80.5926 71.21 80.5867 73.51 80.6456C74.6141 80.675 75.0932 80.502 75.1862 79.1754C75.4098 75.962 75.9713 72.778 76.9365 69.6858C78.1112 65.9215 81.3882 63.512 85.2997 63.539C88.0293 63.5579 89.2158 65.1057 88.4931 67.8354C87.4008 71.9634 86.2555 76.0762 85.1196 80.1924C83.2927 86.8041 83.2868 86.8029 76.3479 86.8029C74.7295 86.8029 73.1063 86.89 71.496 86.777C70.0894 86.6758 69.462 87.0136 69.6056 88.5768C69.7527 90.18 69.6386 91.8079 69.6386 93.4252C69.635 93.4252 69.6303 93.4252 69.6256 93.4252Z" fill="#020202"/>
</g>
<mask id="mask3_165_10" style="mask-type:luminance" maskUnits="userSpaceOnUse" x="24" y="63" width="27" height="39">
<path d="M24.1067 63.28H50.0214V101.7H24.1067V63.28Z" fill="white"/>
</mask>
<g mask="url(#mask3_165_10)">
<path fill-rule="evenodd" clip-rule="evenodd" d="M49.7283 91.184C49.7283 93.5499 49.7589 95.9147 49.72 98.2794C49.6847 100.442 48.3817 101.752 46.4065 101.708C44.5102 101.667 43.3673 100.406 43.352 98.2571C43.3296 95.0213 43.279 91.7819 43.3779 88.5497C43.4191 87.2031 43.1448 86.6946 41.6723 86.764C38.8779 86.8947 36.0717 86.8217 33.2726 86.7946C30.7713 86.7711 29.4036 85.7258 28.7197 83.261C27.2601 78.0112 25.8229 72.7544 24.4269 67.4869C23.8006 65.1269 25.0283 63.599 27.4755 63.539C31.5717 63.439 35.0724 65.9603 36.2 70.0012C37.0193 72.9298 37.6314 75.9207 37.7656 78.9682C37.8197 80.2053 38.1399 80.7374 39.4888 80.6585C41.4734 80.5408 43.4697 80.6208 45.4625 80.6291C48.6606 80.642 49.7236 81.692 49.7294 84.8348C49.7318 86.9512 49.7283 89.0676 49.7283 91.184Z" fill="black"/>
</g>
<path fill-rule="evenodd" clip-rule="evenodd" d="M56.7107 60.1725C58.6376 60.1725 60.5633 60.1513 62.4913 60.176C65.8731 60.2184 68.3179 62.6443 68.4191 66.0308C68.4356 66.5275 68.425 67.0255 68.425 67.5222C68.425 70.0082 68.4227 69.9376 66.0273 70.0141C64.7772 70.0541 64.1993 69.7822 64.3547 68.4097C64.4218 67.8153 64.7184 66.7347 63.8262 66.7006C62.8339 66.6606 63.167 67.7588 63.2435 68.3273C63.4412 69.7951 62.828 70.0588 61.492 70.0188C58.2621 69.9187 55.0275 69.9187 51.7975 70.0188C50.4686 70.0588 49.9884 69.6468 50.1967 68.3591C50.245 68.0578 50.2132 67.7376 50.1826 67.4292C50.1473 67.0549 50.0708 66.6099 49.5976 66.637C49.1927 66.6606 48.9867 67.0078 49.0126 67.4386C49.0161 67.501 49.022 67.5634 49.0126 67.6246C48.8972 68.3932 49.4198 69.5903 48.7089 69.8528C47.7237 70.2177 46.5089 69.9658 45.393 69.9764C45.0069 69.9799 44.8386 69.7563 44.8539 69.4008C44.9375 67.4916 44.462 65.5094 45.3095 63.6967C46.3323 61.5132 48.0803 60.2349 50.5569 60.1807C52.6062 60.136 54.6578 60.1725 56.7107 60.1725Z" fill="black"/>
<path fill-rule="evenodd" clip-rule="evenodd" d="M56.8273 75.8854C51.7222 75.8854 46.6161 75.8136 41.5146 75.9278C39.9644 75.9619 39.9514 75.2333 40.0644 74.1539C40.1656 73.1769 39.5194 71.9445 41.5122 71.961C51.6587 72.0469 61.8063 72.0458 71.9516 71.9575C73.7007 71.941 73.31 72.9486 73.2629 73.8479C73.217 74.7295 73.875 75.9678 71.9516 75.9242C66.9125 75.8089 61.8687 75.8854 56.8273 75.8854Z" fill="black"/>
<mask id="mask4_165_10" style="mask-type:luminance" maskUnits="userSpaceOnUse" x="72" y="67" width="23" height="26">
<path d="M72.3199 67.1973H94.302V92.8106H72.3199V67.1973Z" fill="white"/>
</mask>
<g mask="url(#mask4_165_10)">
<path fill-rule="evenodd" clip-rule="evenodd" d="M77.4427 92.7022C76.3845 92.7022 75.3263 92.6952 74.2681 92.7034C73.1663 92.7128 72.4248 92.202 72.3718 91.0967C72.3118 89.8866 73.1569 89.5347 74.2257 89.5382C75.9666 89.5441 77.7099 89.5465 79.4519 89.5371C83.3975 89.5182 85.7164 87.7691 86.7628 83.9683C88.1282 79.0163 89.4701 74.0596 90.7908 69.097C91.0945 67.9552 91.5877 66.9771 92.9154 67.3702C94.1914 67.7457 94.1725 68.811 93.8594 69.9657C92.5176 74.9247 91.2828 79.9144 89.9115 84.8676C88.5167 89.9055 84.7359 92.694 79.4967 92.7022C78.8116 92.7034 78.1265 92.7022 77.4427 92.7022Z" fill="#020202"/>
</g>
<path fill-rule="evenodd" clip-rule="evenodd" d="M35.3749 92.7025C34.1107 92.6024 32.6334 92.766 31.1362 92.4706C26.9964 91.6549 24.3644 89.183 23.2144 85.2468C21.7383 80.196 20.4753 75.0839 19.1358 69.993C18.8521 68.9101 18.7662 67.7306 20.0975 67.3599C21.4252 66.9903 21.9126 67.9602 22.2174 69.1114C23.5146 74.0198 24.8682 78.9141 26.1818 83.8178C27.2118 87.6634 29.5954 89.5243 33.5716 89.5385C35.3136 89.5444 37.0557 89.5444 38.799 89.5396C39.8678 89.5361 40.7506 89.9363 40.6906 91.0899C40.6376 92.1222 39.8843 92.7166 38.7684 92.706C37.7102 92.6931 36.652 92.7025 35.3749 92.7025Z" fill="#020202"/>
<path fill-rule="evenodd" clip-rule="evenodd" d="M88.2342 56.6272C88.2307 59.4522 85.9695 61.704 83.148 61.6922C80.3218 61.6793 78.0901 59.4228 78.1019 56.586C78.1136 53.7587 80.3583 51.5387 83.1951 51.5481C86.0425 51.5587 88.2365 53.7705 88.2342 56.6272Z" fill="#020202"/>
<path fill-rule="evenodd" clip-rule="evenodd" d="M34.877 56.4907C34.9005 59.3486 32.7158 61.6275 29.8979 61.684C27.1647 61.7393 24.7529 59.4098 24.6858 56.6508C24.6175 53.8234 26.974 51.521 29.9309 51.5281C32.697 51.5363 34.8534 53.6998 34.877 56.4907Z" fill="#020202"/>
<path fill-rule="evenodd" clip-rule="evenodd" d="M61.3649 53.7961C61.3755 56.4681 59.3474 58.4833 56.6695 58.4633C54.0529 58.4444 51.9282 56.3068 51.9671 53.7337C52.0047 51.2654 54.1353 49.1608 56.6342 49.1208C59.2579 49.0784 61.3555 51.15 61.3649 53.7961Z" fill="#020202"/>
<mask id="mask5_165_10" style="mask-type:luminance" maskUnits="userSpaceOnUse" x="7" y="70" width="48" height="41">
<path d="M7.53333 70.2107H54.24V110.148H7.53333V70.2107Z" fill="white"/>
</mask>
<g mask="url(#mask5_165_10)">
<path d="M53.4655 104.46C53.5562 101.894 53.2348 99.552 52.5168 97.445L52.5133 97.4132L52.5074 97.4155C51.0348 93.1239 47.8791 89.834 42.9918 87.7799C42.2538 87.4704 41.5087 87.182 40.7577 86.9007C38.6955 85.8378 36.4684 85.0303 34.1225 84.4229C33.1632 84.1745 32.2168 83.9062 31.2822 83.6084C28.5843 82.7491 26.0042 81.645 23.6017 80.0571C22.3552 79.2308 21.5913 79.5839 21.3288 81.06C21.2287 81.6309 21.2935 82.2983 21.4959 82.8468C21.8691 83.8697 22.3682 84.7831 22.9861 85.5835C23.7665 86.5958 24.7423 87.4209 25.89 88.0671C26.2796 88.2873 26.6822 88.4921 27.1142 88.6698C28.9834 89.4361 30.9373 89.9976 32.8442 90.6862C33.501 90.9239 34.2167 91.1652 34.7134 91.6172C35.0971 91.9704 35.4479 92.7343 35.3161 93.1663C35.196 93.57 34.4356 93.9973 33.933 94.0291C33.0161 94.0856 32.0497 93.9632 31.1563 93.7266C30.563 93.57 29.9839 93.384 29.4165 93.1851C26.2007 92.0563 23.3993 90.2094 21.3759 87.3939C18.9169 83.9685 16.8041 80.2902 14.5853 76.6953C13.1704 74.4 11.7261 72.1188 9.32137 70.7428C8.87054 70.4862 8.30319 70.4238 7.73701 70.365C7.50159 71.7316 7.5063 73.1606 7.79351 74.6425C8.57863 76.6906 9.36609 78.7364 10.2148 80.7539C10.715 81.9428 11.2341 83.1222 11.7932 84.284C14.2851 89.4773 17.3526 94.3222 21.7784 98.1759C25.3627 101.295 33.5752 105.342 33.5928 105.344C42.2385 110.108 52.3591 109.734 52.3591 109.734L54.2389 110.173L53.4655 104.46Z" fill="#172E73"/>
</g>
<mask id="mask6_165_10" style="mask-type:luminance" maskUnits="userSpaceOnUse" x="58" y="70" width="48" height="41">
<path d="M58.76 70.2107H105.467V110.148H58.76V70.2107Z" fill="white"/>
</mask>
<g mask="url(#mask6_165_10)">
<path d="M59.5334 104.46C59.4439 101.894 59.7629 99.552 60.4833 97.445L60.4868 97.4132L60.4927 97.4155C61.9664 93.1239 65.121 89.834 70.0083 87.7799C70.7463 87.4704 71.489 87.182 72.2412 86.9007C74.3046 85.8378 76.5317 85.0303 78.8776 84.4229C79.8357 84.1745 80.7833 83.9062 81.7167 83.6084C84.4158 82.7491 86.9947 81.645 89.3984 80.0571C90.6437 79.2308 91.4076 79.5839 91.6713 81.06C91.7714 81.6309 91.7054 82.2983 91.503 82.8468C91.131 83.8697 90.6308 84.7831 90.014 85.5835C89.2336 86.5958 88.2566 87.4209 87.1101 88.0671C86.7205 88.2873 86.3156 88.4921 85.8848 88.6698C84.0156 89.4361 82.0604 89.9976 80.1547 90.6862C79.4991 90.9239 78.7822 91.1652 78.2867 91.6172C77.9018 91.9704 77.5498 92.7343 77.6828 93.1663C77.8041 93.57 78.5633 93.9973 79.0647 94.0291C79.984 94.0856 80.9504 93.9632 81.8427 93.7266C82.4359 93.57 83.0139 93.384 83.5836 93.1851C86.797 92.0563 89.5996 90.2094 91.6242 87.3939C94.082 83.9685 96.1948 80.2902 98.4113 76.6953C99.8297 74.4 101.272 72.1188 103.676 70.7428C104.13 70.4862 104.696 70.4238 105.263 70.365C105.497 71.7316 105.493 73.1606 105.205 74.6425C104.42 76.6906 103.632 78.7364 102.784 80.7539C102.283 81.9428 101.766 83.1222 101.207 84.284C98.7138 89.4773 95.6475 94.3222 91.2193 98.1759C87.6374 101.295 79.4237 105.342 79.4073 105.344C70.7592 110.108 60.6387 109.734 60.6387 109.734L58.7612 110.173L59.5334 104.46Z" fill="#172E73"/>
</g>
<mask id="mask7_165_10" style="mask-type:luminance" maskUnits="userSpaceOnUse" x="5" y="2" width="103" height="57">
<path d="M5.08032 2.79785H107.91V58.4586H5.08032V2.79785Z" fill="white"/>
</mask>
<g mask="url(#mask7_165_10)">
<path d="M107.913 54.2424C107.913 55.6608 107.851 57.0686 107.748 58.4575C107.309 30.7525 84.5393 8.43266 56.5 8.43266C28.4607 8.43266 5.6912 30.7525 5.25333 58.4575C5.14857 57.0686 5.08618 55.6608 5.08618 54.2424C5.08618 25.8476 28.1052 2.82739 56.5 2.82739C84.8936 2.82739 107.913 25.8476 107.913 54.2424Z" fill="#256596"/>
</g>
</g>
<defs>
<clipPath id="clip0_165_10">
<rect width="113" height="113" rx="56.5" fill="white"/>
</clipPath>
</defs>
</svg>
